<svg width="30" height="30" viewBox="0 0 30 30" fill="none" xmlns="http://www.w3.org/2000/svg">
<path d="M10 15.065C12.4938 15.065 14.375 13.1838 14.375 10.69C14.375 8.19625 12.4938 6.315 10 6.315C7.50626 6.315 5.62501 8.19625 5.62501 10.69C5.62501 13.1838 7.50626 15.065 10 15.065ZM11.25 16.25H8.75001C5.30376 16.25 2.50001 19.0538 2.50001 22.5V23.75H17.5V22.5C17.5 19.0538 14.6963 16.25 11.25 16.25ZM25.3675 10.365L19.9925 15.73L18.3775 14.115L16.61 15.8825L19.9925 19.2625L27.1325 12.135L25.3675 10.365Z" fill="#144A6A"/>
</svg>
