<svg width="24" height="24" viewBox="0 0 24 24" fill="none" xmlns="http://www.w3.org/2000/svg">
<path d="M22.3533 12.5067L17.7333 10.38V4.28666C17.7312 4.15883 17.6923 4.03429 17.6214 3.92791C17.5505 3.82153 17.4505 3.73779 17.3333 3.68666L12.3333 1.38666C12.2455 1.34605 12.15 1.32501 12.0533 1.32501C11.9566 1.32501 11.8611 1.34605 11.7733 1.38666L6.7733 3.68666C6.65758 3.74022 6.55965 3.82584 6.49111 3.93336C6.42258 4.04089 6.38632 4.16582 6.38663 4.29333V10.3867L1.78663 12.5067C1.67091 12.5602 1.57298 12.6458 1.50444 12.7534C1.43591 12.8609 1.39965 12.9858 1.39997 13.1133V19.6333C1.39965 19.7608 1.43591 19.8858 1.50444 19.9933C1.57298 20.1008 1.67091 20.1864 1.78663 20.24L6.78663 22.54C6.87439 22.5806 6.96993 22.6016 7.06663 22.6016C7.16333 22.6016 7.25888 22.5806 7.34663 22.54L12.0666 20.3667L16.7866 22.54C16.8744 22.5806 16.9699 22.6016 17.0666 22.6016C17.1633 22.6016 17.2589 22.5806 17.3466 22.54L22.3466 20.24C22.4624 20.1864 22.5603 20.1008 22.6288 19.9933C22.6974 19.8858 22.7336 19.7608 22.7333 19.6333V13.1133C22.7342 12.9865 22.6989 12.8621 22.6316 12.7547C22.5643 12.6472 22.4678 12.5612 22.3533 12.5067ZM17.0733 14.6667L13.6666 13.1133L17.0733 11.5467L20.48 13.1133L17.0733 14.6667ZM16.4066 10.3733L12.1133 12.3733V7.24666C12.1937 7.24311 12.2727 7.22504 12.3466 7.19333L16.4 5.33333V10.3867L16.4066 10.3733ZM12.0666 2.72L15.4733 4.28666L12.0666 5.85333L8.66663 4.28666L12.0666 2.72ZM7.06663 11.54L10.4733 13.1067L7.06663 14.6667L3.65997 13.1133L7.06663 11.54ZM11.4 19.2L7.06663 21.2V16.0733C7.15967 16.0678 7.25051 16.0428 7.3333 16L11.3866 14.1333L11.4 19.2ZM21.4 19.2L17.0933 21.2V16.0733C17.1772 16.0643 17.2587 16.0394 17.3333 16L21.3866 14.1333L21.4 19.2Z" fill="#144A6A"/>
</svg>
