<svg width="26" height="23" viewBox="0 0 26 23" fill="none" xmlns="http://www.w3.org/2000/svg">
<g clip-path="url(#clip0_91_78)">
<path d="M12.9375 5.16419L3.12077 13.8229C3.04799 13.8885 2.955 13.919 2.87504 13.9734V22.2812C2.87504 22.6783 3.19668 23 3.59379 23H10.2975L8.62504 19.7292L13.3019 16.8542L10.5994 11.4986L17.25 17.643L12.5732 20.518L14.3665 23H22.2813C22.6784 23 23 22.6783 23 22.2812V13.9752C22.9237 13.9231 22.8329 13.8934 22.7638 13.8314L12.9375 5.16419ZM25.6365 10.6141L23 8.28581V2.15622C23 1.75911 22.6784 1.43747 22.2813 1.43747H19.4063C19.0092 1.43747 18.6875 1.75911 18.6875 2.15622V4.47823L14.1392 0.463115C13.7965 0.154951 13.367 0.000419683 12.9375 -2.95353e-05C12.5081 -0.000478754 12.0795 0.153154 11.7381 0.461318L0.238579 10.6141C-0.0565581 10.8796 -0.0812651 11.3338 0.184223 11.6293L1.14555 12.6994C1.41059 12.9945 1.8652 13.0192 2.16079 12.7537L12.4623 3.66694C12.734 3.42751 13.1415 3.42751 13.4133 3.66694L23.7147 12.7533C24.0099 13.0183 24.4645 12.9941 24.73 12.6989L25.6913 11.6289C25.9564 11.3338 25.9321 10.8791 25.6365 10.6141Z" fill="#144A6A"/>
</g>
<defs>
<clipPath id="clip0_91_78">
<rect width="25.875" height="23" fill="white"/>
</clipPath>
</defs>
</svg>
