<svg width="28" height="22" viewBox="0 0 28 22" fill="none" xmlns="http://www.w3.org/2000/svg">
<g clip-path="url(#clip0_91_62)">
<path d="M20.625 13.5C21.426 13.5 22.209 13.2625 22.8751 12.8175C23.5411 12.3724 24.0602 11.7399 24.3667 10.9999C24.6732 10.2598 24.7534 9.44551 24.5972 8.65988C24.4409 7.87426 24.0552 7.15262 23.4888 6.58622C22.9224 6.01981 22.2007 5.63409 21.4151 5.47782C20.6295 5.32155 19.8152 5.40175 19.0751 5.70829C18.3351 6.01482 17.7026 6.53392 17.2575 7.19994C16.8125 7.86596 16.575 8.64899 16.575 9.45C16.575 10.5241 17.0017 11.5543 17.7612 12.3138C18.5207 13.0733 19.5509 13.5 20.625 13.5ZM22.65 14.85C22.5489 14.8496 22.4484 14.8652 22.3522 14.896C21.2334 15.2847 20.0162 15.2847 18.8974 14.896C18.8013 14.8652 18.7009 14.8496 18.6 14.85C17.9773 14.85 17.3607 14.9731 16.7858 15.2122C16.2108 15.4512 15.6887 15.8016 15.2496 16.2432C14.8105 16.6847 14.463 17.2087 14.2271 17.7849C13.9912 18.3612 13.8716 18.9785 13.875 19.6012C13.8809 20.709 14.7917 21.6 15.9 21.6H25.35C26.4583 21.6 27.3691 20.709 27.375 19.6012C27.3784 18.9785 27.2588 18.3612 27.0229 17.7849C26.787 17.2087 26.4395 16.6847 26.0004 16.2432C25.5613 15.8016 25.0392 15.4512 24.4642 15.2122C23.8893 14.9731 23.2727 14.85 22.65 14.85ZM14.2931 15.2909C14.5784 15.0103 14.8905 14.7583 15.225 14.5387V5.4C15.225 5.04196 15.0828 4.69858 14.8296 4.44541C14.5764 4.19223 14.233 4.05 13.875 4.05H12.525V1.35C12.525 0.991958 12.3828 0.64858 12.1296 0.395406C11.8764 0.142232 11.533 0 11.175 0L4.425 0C4.06696 0 3.72358 0.142232 3.47041 0.395406C3.21723 0.64858 3.075 0.991958 3.075 1.35V4.05H1.725C1.36696 4.05 1.02358 4.19223 0.770406 4.44541C0.517232 4.69858 0.375 5.04196 0.375 5.4L0.375 20.925C0.375 21.104 0.446116 21.2757 0.572703 21.4023C0.69929 21.5289 0.870979 21.6 1.05 21.6H13.2131C12.7733 21.0286 12.5318 20.3294 12.525 19.6083C12.5185 18.8074 12.6714 18.0131 12.975 17.2718C13.2785 16.5306 13.7266 15.8572 14.2931 15.2909ZM6.45 17.0438C6.45 17.178 6.39666 17.3068 6.30172 17.4017C6.20678 17.4967 6.07802 17.55 5.94375 17.55H4.25625C4.12198 17.55 3.99322 17.4967 3.89828 17.4017C3.80334 17.3068 3.75 17.178 3.75 17.0438V15.3562C3.75 15.222 3.80334 15.0932 3.89828 14.9983C3.99322 14.9033 4.12198 14.85 4.25625 14.85H5.94375C6.07802 14.85 6.20678 14.9033 6.30172 14.9983C6.39666 15.0932 6.45 15.222 6.45 15.3562V17.0438ZM6.45 11.6438C6.45 11.778 6.39666 11.9068 6.30172 12.0017C6.20678 12.0967 6.07802 12.15 5.94375 12.15H4.25625C4.12198 12.15 3.99322 12.0967 3.89828 12.0017C3.80334 11.9068 3.75 11.778 3.75 11.6438V9.95625C3.75 9.82198 3.80334 9.69322 3.89828 9.59828C3.99322 9.50334 4.12198 9.45 4.25625 9.45H5.94375C6.07802 9.45 6.20678 9.50334 6.30172 9.59828C6.39666 9.69322 6.45 9.82198 6.45 9.95625V11.6438ZM8.475 6.49688C8.475 6.56401 8.44833 6.62839 8.40086 6.67586C8.35339 6.72333 8.28901 6.75 8.22187 6.75H7.37812C7.31099 6.75 7.24661 6.72333 7.19914 6.67586C7.15167 6.62839 7.125 6.56401 7.125 6.49688V5.4H6.02812C5.96099 5.4 5.89661 5.37333 5.84914 5.32586C5.80167 5.27839 5.775 5.21401 5.775 5.14687V4.30312C5.775 4.23599 5.80167 4.17161 5.84914 4.12414C5.89661 4.07667 5.96099 4.05 6.02812 4.05H7.125V2.95312C7.125 2.88599 7.15167 2.82161 7.19914 2.77414C7.24661 2.72667 7.31099 2.7 7.37812 2.7H8.22187C8.28901 2.7 8.35339 2.72667 8.40086 2.77414C8.44833 2.82161 8.475 2.88599 8.475 2.95312V4.05H9.57187C9.63901 4.05 9.70339 4.07667 9.75086 4.12414C9.79833 4.17161 9.825 4.23599 9.825 4.30312V5.14687C9.825 5.21401 9.79833 5.27839 9.75086 5.32586C9.70339 5.37333 9.63901 5.4 9.57187 5.4H8.475V6.49688ZM11.85 17.0438C11.85 17.178 11.7967 17.3068 11.7017 17.4017C11.6068 17.4967 11.478 17.55 11.3437 17.55H9.65625C9.52198 17.55 9.39322 17.4967 9.29828 17.4017C9.20334 17.3068 9.15 17.178 9.15 17.0438V15.3562C9.15 15.222 9.20334 15.0932 9.29828 14.9983C9.39322 14.9033 9.52198 14.85 9.65625 14.85H11.3437C11.478 14.85 11.6068 14.9033 11.7017 14.9983C11.7967 15.0932 11.85 15.222 11.85 15.3562V17.0438ZM11.85 11.6438C11.85 11.778 11.7967 11.9068 11.7017 12.0017C11.6068 12.0967 11.478 12.15 11.3437 12.15H9.65625C9.52198 12.15 9.39322 12.0967 9.29828 12.0017C9.20334 11.9068 9.15 11.778 9.15 11.6438V9.95625C9.15 9.82198 9.20334 9.69322 9.29828 9.59828C9.39322 9.50334 9.52198 9.45 9.65625 9.45H11.3437C11.478 9.45 11.6068 9.50334 11.7017 9.59828C11.7967 9.69322 11.85 9.82198 11.85 9.95625V11.6438Z" fill="#144A6A"/>
</g>
<defs>
<clipPath id="clip0_91_62">
<rect width="27" height="21.6" fill="white" transform="translate(0.375)"/>
</clipPath>
</defs>
</svg>
