<svg width="23" height="23" viewBox="0 0 23 23" fill="none" xmlns="http://www.w3.org/2000/svg">
<g clip-path="url(#clip0_91_76)">
<path d="M15.1162 7.1875C14.4648 3.17598 12.9285 0.359375 11.1406 0.359375C9.35273 0.359375 7.81641 3.17598 7.16504 7.1875H15.1162ZM6.82812 11.5C6.82812 12.4973 6.88203 13.4541 6.97637 14.375H15.3004C15.3947 13.4541 15.4486 12.4973 15.4486 11.5C15.4486 10.5027 15.3947 9.5459 15.3004 8.625H6.97637C6.88203 9.5459 6.82812 10.5027 6.82812 11.5ZM21.4143 7.1875C20.1295 4.1373 17.5285 1.77891 14.3166 0.826562C15.4127 2.34492 16.1674 4.63145 16.5627 7.1875H21.4143ZM7.96016 0.826562C4.75273 1.77891 2.14727 4.1373 0.866992 7.1875H5.71855C6.10937 4.63145 6.86406 2.34492 7.96016 0.826562ZM21.8949 8.625H16.7424C16.8367 9.56836 16.8906 10.5342 16.8906 11.5C16.8906 12.4658 16.8367 13.4316 16.7424 14.375H21.8904C22.1375 13.4541 22.2768 12.4973 22.2768 11.5C22.2768 10.5027 22.1375 9.5459 21.8949 8.625ZM5.39062 11.5C5.39062 10.5342 5.44453 9.56836 5.53887 8.625H0.386328C0.14375 9.5459 0 10.5027 0 11.5C0 12.4973 0.14375 13.4541 0.386328 14.375H5.53437C5.44453 13.4316 5.39062 12.4658 5.39062 11.5ZM7.16504 15.8125C7.81641 19.824 9.35273 22.6406 11.1406 22.6406C12.9285 22.6406 14.4648 19.824 15.1162 15.8125H7.16504ZM14.3211 22.1734C17.5285 21.2211 20.134 18.8627 21.4187 15.8125H16.5672C16.1719 18.3686 15.4172 20.6551 14.3211 22.1734ZM0.866992 15.8125C2.15176 18.8627 4.75273 21.2211 7.96465 22.1734C6.86855 20.6551 6.11387 18.3686 5.71855 15.8125H0.866992Z" fill="#144A6A"/>
</g>
<defs>
<clipPath id="clip0_91_76">
<rect width="22.2812" height="23" fill="white"/>
</clipPath>
</defs>
</svg>
