<svg width="18" height="20" viewBox="0 0 18 20" fill="none" xmlns="http://www.w3.org/2000/svg">
<path d="M3 20H16C16.5304 20 17.0391 19.7893 17.4142 19.4142C17.7893 19.0391 18 18.5304 18 18V2C18 1.46957 17.7893 0.960859 17.4142 0.585786C17.0391 0.210714 16.5304 0 16 0H2C1.46957 0 0.960859 0.210714 0.585786 0.585786C0.210714 0.960859 0 1.46957 0 2V18C0 18.5304 0.210714 19.0391 0.585786 19.4142C0.960859 19.7893 1.46957 20 2 20H3ZM9 2.999C10.647 2.999 12 4.35 12 5.999C12 7.647 10.647 9 9 9C7.353 9 6 7.647 6 5.999C6 4.35 7.353 2.999 9 2.999ZM3 15.25C3 13.031 5.705 10.75 9 10.75C12.295 10.75 15 13.031 15 15.25V16H3V15.25Z" fill="#144A6A"/>
</svg>
