<svg width="26" height="26" viewBox="0 0 26 26" fill="none" xmlns="http://www.w3.org/2000/svg">
<path d="M22.75 15.1667V4.33333H3.25V15.1667H22.75ZM22.75 2.16667C23.3246 2.16667 23.8757 2.39494 24.2821 2.80127C24.6884 3.2076 24.9167 3.7587 24.9167 4.33333V17.3333C24.9167 17.908 24.6884 18.4591 24.2821 18.8654C23.8757 19.2717 23.3246 19.5 22.75 19.5H15.1667L17.3333 22.75V23.8333H8.66667V22.75L10.8333 19.5H3.25C2.67537 19.5 2.12427 19.2717 1.71794 18.8654C1.31161 18.4591 1.08334 17.908 1.08334 17.3333V4.33333C1.08334 3.13083 2.0475 2.16667 3.25 2.16667H22.75ZM4.33334 5.41667H16.25V10.8333H4.33334V5.41667ZM17.3333 5.41667H21.6667V7.58333H17.3333V5.41667ZM21.6667 8.66667V14.0833H17.3333V8.66667H21.6667ZM4.33334 11.9167H9.75V14.0833H4.33334V11.9167ZM10.8333 11.9167H16.25V14.0833H10.8333V11.9167Z" fill="#144A6A"/>
</svg>
