<svg width="59" height="30" viewBox="0 0 59 30" fill="none" xmlns="http://www.w3.org/2000/svg">
<path d="M48.2872 22.2784C48.1581 22.2784 48.0312 22.2749 47.9033 22.2692C47.8629 22.2669 47.8237 22.2623 47.7834 22.26C47.6969 22.2542 47.6105 22.2484 47.5252 22.2404C47.4779 22.2358 47.433 22.2288 47.3857 22.2231C47.3073 22.2139 47.2289 22.2046 47.1517 22.1931C47.1033 22.1862 47.056 22.1758 47.0076 22.1677C46.9327 22.1551 46.8589 22.1424 46.7851 22.1274C46.7379 22.117 46.6906 22.1055 46.6433 22.094C46.5707 22.0778 46.4969 22.0617 46.4243 22.0432C46.3782 22.0317 46.3344 22.0167 46.2883 22.0052C46.2156 21.9845 46.1419 21.9649 46.0704 21.943C46.0277 21.9291 45.9862 21.9141 45.9436 21.9003C45.8698 21.8761 45.796 21.8519 45.7234 21.8254C45.6842 21.8104 45.645 21.7942 45.6058 21.7793C44.6202 21.3965 43.7349 20.8121 43.0029 20.0743C41.6691 18.729 40.8449 16.8777 40.8449 14.8384C40.8449 10.7346 44.1833 7.39501 48.2883 7.39501C50.3276 7.39501 52.1789 8.22039 53.5242 9.55299L58.7543 4.32288C56.0695 1.65076 52.3714 0 48.2872 0C40.5106 0 34.1312 5.98402 33.5029 13.5992C33.5018 13.5992 33.5006 13.5981 33.5006 13.5981C33.5006 13.6073 33.5006 13.6154 33.5018 13.6246C33.4741 13.9739 33.458 14.3266 33.4545 14.6828C33.4453 14.7566 33.4361 14.8315 33.4257 14.9053C33.4107 16.3382 32.9853 17.7676 32.1519 18.9988C32.1507 18.993 32.1484 18.9873 32.1472 18.9815C31.7173 19.6201 31.1905 20.1884 30.5887 20.6668C30.093 21.0611 29.5455 21.3931 28.9587 21.6513C26.2047 22.8467 22.8755 22.2992 20.6576 20.0247C20.0098 19.3608 19.5141 18.6057 19.1648 17.8011L17.3549 19.6109L19.1648 17.8011C17.9682 15.0471 18.5158 11.7167 20.7902 9.49881C21.0599 9.23598 21.3447 8.99851 21.6409 8.78525C21.672 8.76219 21.7043 8.74029 21.7354 8.71724C21.7781 8.68726 21.8219 8.65729 21.8646 8.62847C21.9395 8.5789 22.0144 8.53049 22.0905 8.48322C22.1159 8.46824 22.1412 8.45325 22.1654 8.43827C22.2346 8.39677 22.3049 8.35642 22.3752 8.31723C22.4006 8.30339 22.4248 8.28956 22.4502 8.27573C22.5401 8.22731 22.6311 8.18005 22.7234 8.13624C22.7418 8.12702 22.7614 8.11895 22.7798 8.10973C22.8663 8.06823 22.9539 8.02903 23.0415 7.99099C23.0554 7.98523 23.0703 7.97831 23.0842 7.97255C23.1822 7.93105 23.2813 7.89185 23.3816 7.85497C23.4024 7.8469 23.4219 7.83998 23.4427 7.83306C23.5453 7.79617 23.649 7.76044 23.7551 7.72701C23.7563 7.72701 23.7563 7.72701 23.7574 7.72586C23.8658 7.69242 23.9764 7.6613 24.0871 7.63248C24.0986 7.62902 24.1101 7.62672 24.1217 7.62326C24.2358 7.59444 24.3511 7.56677 24.4663 7.54372C24.4675 7.54372 24.4687 7.54372 24.4698 7.54257C24.9528 7.44343 25.4531 7.39155 25.9661 7.39155C26.9932 7.39155 27.9961 7.64401 28.9068 8.05555L34.3364 2.62601C31.9686 1.02481 29.0428 0 25.9673 0C25.7528 0 25.5407 0.00576384 25.3286 0.014986C25.3286 0.0126805 25.3286 0.0103749 25.3286 0.00806938C24.1828 0.0587912 23.0415 0.242081 21.9303 0.556787C21.9141 0.561398 21.8968 0.566009 21.8807 0.57062C21.7896 0.597134 21.6974 0.623648 21.6063 0.652467C21.5775 0.661689 21.5475 0.670911 21.5187 0.680134C21.4415 0.704342 21.3643 0.729703 21.2882 0.755063C21.249 0.767744 21.2098 0.780424 21.1706 0.794258C21.106 0.81616 21.0415 0.839216 20.9769 0.862271C20.9274 0.879562 20.8789 0.896854 20.8294 0.915298C20.7798 0.933743 20.7314 0.952187 20.6818 0.971784C20.6196 0.995992 20.5573 1.01905 20.4951 1.04326C20.4755 1.05133 20.4559 1.05939 20.4351 1.06746C14.9814 3.26003 11.1311 8.5985 11.1311 14.8361C11.1311 17.9521 12.0925 20.8432 13.7341 23.2306C16.4085 27.12 20.8893 29.6711 25.9673 29.6711C27.8751 29.6711 29.6988 29.3103 31.3749 28.6544C31.4429 28.6279 31.5121 28.6002 31.5801 28.5714C31.6078 28.5598 31.6366 28.5483 31.6642 28.5368C32.568 28.1633 33.4418 27.6953 34.273 27.1339C34.9992 26.6439 35.6932 26.0825 36.3433 25.4485C36.62 25.1788 36.8828 24.901 37.133 24.6162C37.3393 24.8514 37.5526 25.0785 37.7728 25.2998C38.793 26.3246 39.9619 27.2007 41.2449 27.8947C41.2437 27.8947 41.2437 27.8958 41.2426 27.8958C41.3106 27.9327 41.3798 27.9673 41.4478 28.0031C41.4789 28.0192 41.5089 28.0353 41.5389 28.0503C41.6184 28.0907 41.6979 28.1299 41.7775 28.1691C41.8178 28.1887 41.8582 28.2082 41.8985 28.2278C41.9758 28.2647 42.053 28.3016 42.1314 28.3374C42.174 28.357 42.2167 28.3754 42.2593 28.395C42.5153 28.5091 42.7735 28.6152 43.0363 28.7143C43.0939 28.7362 43.1516 28.7581 43.2092 28.7789C43.2772 28.8031 43.3453 28.8273 43.4133 28.8515C43.4755 28.8734 43.5389 28.8953 43.6023 28.916C43.668 28.938 43.7337 28.9599 43.7994 28.9806C43.8698 29.0025 43.9401 29.0244 44.0115 29.0452C44.0715 29.0636 44.1314 29.082 44.1914 29.0993C44.3159 29.1351 44.4415 29.1697 44.5672 29.2019C44.6144 29.2146 44.6629 29.225 44.7101 29.2365C44.7977 29.2584 44.8865 29.2803 44.9753 29.2999C45.0317 29.3126 45.0882 29.3253 45.1447 29.3368C45.2266 29.3541 45.3096 29.3714 45.3926 29.3875C45.449 29.3991 45.5055 29.4094 45.562 29.4198C45.6519 29.4359 45.7419 29.4521 45.8318 29.4671C45.8802 29.4751 45.9298 29.4844 45.9782 29.4913C46.1154 29.5132 46.2525 29.5328 46.3909 29.5501C46.4151 29.5535 46.4393 29.5558 46.4623 29.5581C46.5799 29.5731 46.6986 29.5858 46.8162 29.5973C46.8646 29.6019 46.9142 29.6066 46.9626 29.61C47.0583 29.6181 47.1551 29.6262 47.2508 29.6331C47.3027 29.6365 47.3546 29.64 47.4064 29.6434C47.5056 29.6492 47.6059 29.6538 47.705 29.6573C47.7511 29.6596 47.7972 29.6607 47.8433 29.663C47.9874 29.6677 48.1327 29.67 48.2779 29.67H48.2791C52.3634 29.67 56.0614 28.0192 58.7451 25.3482L53.515 20.1181C52.1766 21.453 50.3264 22.2784 48.2872 22.2784Z" fill="#254A68"/>
<path d="M17.4977 19.5676L11.8962 13.9661L1.82535 24.0369L7.42687 29.6384L17.4977 19.5676Z" fill="#254A68"/>
<path d="M7.42728 7.37311H-3.8147e-06V29.6388H7.42728V7.37311Z" fill="#254A68"/>
<path d="M7.42729 0.0338058H3.8147e-06V3.69961H7.42729V0.0338058Z" fill="#8CBB9F"/>
</svg>
