<svg width="321" height="240" viewBox="0 0 321 240" fill="none" xmlns="http://www.w3.org/2000/svg">
<path fill-rule="evenodd" clip-rule="evenodd" d="M128.413 80.8496H251.659C289.961 80.8496 321.006 111.895 321.006 150.196C321.006 188.497 289.961 219.543 251.659 219.543H23.2429V186.02C23.2429 127.933 70.3268 80.8496 128.413 80.8496Z" fill="#8CBB9F"/>
<path d="M38.0728 118.316H21.64C14.3792 118.316 8.49371 124.202 8.49371 131.463C8.49371 138.723 14.3792 144.609 21.64 144.609H64.3654C64.3654 130.087 52.5944 118.316 38.0728 118.316Z" stroke="#18233D" stroke-width="0.525851" stroke-linecap="round"/>
<path d="M48.0825 129.491C46.7113 129.491 45.5998 130.521 45.5998 131.791C45.5998 133.062 46.7113 134.092 48.0825 134.092C49.4536 134.092 50.5651 133.062 50.5651 131.791C50.5651 130.521 49.4536 129.491 48.0825 129.491Z" fill="#18233D"/>
<path d="M37.0902 129.491C35.7191 129.491 34.6076 130.521 34.6076 131.791C34.6076 133.062 35.7191 134.092 37.0902 134.092C38.4614 134.092 39.5729 133.062 39.5729 131.791C39.5729 130.521 38.4614 129.491 37.0902 129.491Z" fill="#18233D"/>
<path d="M26.0979 129.491C24.7268 129.491 23.6153 130.521 23.6153 131.791C23.6153 133.062 24.7268 134.092 26.0979 134.092C27.469 134.092 28.5806 133.062 28.5806 131.791C28.5806 130.521 27.469 129.491 26.0979 129.491Z" fill="#18233D"/>
<path fill-rule="evenodd" clip-rule="evenodd" d="M56.1086 12.489H25.8721C12.8017 12.489 2.20886 23.0818 2.20886 36.1522C2.20886 49.2227 12.8017 59.8155 25.8721 59.8155H103.435C103.435 33.6797 82.2444 12.489 56.1086 12.489Z" fill="#8CBB9F"/>
<path fill-rule="evenodd" clip-rule="evenodd" d="M199.095 7.88776H276.304C279.57 7.88776 282.22 10.5372 282.22 13.8036C282.22 13.8086 282.22 13.8137 282.22 13.8188L281.876 170.917C281.871 174.178 279.221 176.817 275.96 176.817H198.751C195.485 176.817 192.835 174.168 192.835 170.902C192.835 170.896 192.835 170.891 192.835 170.886L193.179 13.7884C193.184 10.5271 195.828 7.88776 199.095 7.88776Z" fill="#18233D"/>
<path fill-rule="evenodd" clip-rule="evenodd" d="M278.281 24.9779C279.009 24.9779 279.595 25.5644 279.595 26.2925V59.1582C279.595 59.8863 279.009 60.4728 278.281 60.4728C277.553 60.4728 276.966 59.8863 276.966 59.1582V26.2925C276.966 25.5644 277.553 24.9779 278.281 24.9779Z" fill="#3660AA"/>
<path fill-rule="evenodd" clip-rule="evenodd" d="M278.938 24.9779C279.666 24.9779 280.253 25.5644 280.253 26.2925V59.1582C280.253 59.8863 279.666 60.4728 278.938 60.4728C278.21 60.4728 277.623 59.8863 277.623 59.1582V26.2925C277.623 25.5644 278.21 24.9779 278.938 24.9779Z" fill="white"/>
<path fill-rule="evenodd" clip-rule="evenodd" d="M192.522 8.21643C189.442 8.21643 186.939 10.7092 186.934 13.7935L186.591 170.891C186.591 170.896 186.591 170.896 186.591 170.902C186.591 173.986 189.093 176.489 192.178 176.489H269.387C272.466 176.489 274.969 173.996 274.974 170.912L275.318 13.8137C275.318 13.8087 275.318 13.8087 275.318 13.8036C275.318 10.7193 272.815 8.21643 269.731 8.21643H192.522Z" fill="white" stroke="#18233D" stroke-width="0.657313"/>
<path d="M229.64 174.188C232.181 174.188 234.241 172.128 234.241 169.587C234.241 167.046 232.181 164.986 229.64 164.986C227.098 164.986 225.038 167.046 225.038 169.587C225.038 172.128 227.098 174.188 229.64 174.188Z" fill="#3660AA"/>
<mask id="mask0_21_280" style="mask-type:alpha" maskUnits="userSpaceOnUse" x="225" y="164" width="10" height="11">
<path d="M229.64 174.188C232.181 174.188 234.241 172.128 234.241 169.587C234.241 167.046 232.181 164.986 229.64 164.986C227.098 164.986 225.038 167.046 225.038 169.587C225.038 172.128 227.098 174.188 229.64 174.188Z" fill="white"/>
</mask>
<g mask="url(#mask0_21_280)">
<path d="M230.954 174.188C233.495 174.188 235.555 172.128 235.555 169.587C235.555 167.046 233.495 164.986 230.954 164.986C228.413 164.986 226.353 167.046 226.353 169.587C226.353 172.128 228.413 174.188 230.954 174.188Z" fill="white"/>
</g>
<path fill-rule="evenodd" clip-rule="evenodd" d="M194.807 10.517H214.577C215.7 10.517 216.691 11.2502 217.019 12.3221C217.348 13.394 218.339 14.1272 219.461 14.1272H239.924C241.38 14.1272 242.756 13.4648 243.666 12.3221C244.571 11.1794 245.951 10.517 247.407 10.517H266.803C270.064 10.517 272.714 13.1564 272.719 16.4227L273.017 156.431C273.022 159.697 270.383 162.351 267.112 162.356C267.106 162.356 267.101 162.356 267.101 162.356H195.105C191.844 162.356 189.195 159.717 189.19 156.451L188.891 16.443C188.886 13.1766 191.526 10.5221 194.797 10.517C194.797 10.517 194.802 10.517 194.807 10.517Z" fill="#D8E1F4"/>
<mask id="mask1_21_280" style="mask-type:alpha" maskUnits="userSpaceOnUse" x="188" y="10" width="86" height="153">
<path fill-rule="evenodd" clip-rule="evenodd" d="M194.807 10.517H214.577C215.7 10.517 216.691 11.2502 217.019 12.3221C217.348 13.394 218.339 14.1272 219.461 14.1272H239.924C241.38 14.1272 242.756 13.4648 243.666 12.3221C244.571 11.1794 245.951 10.517 247.407 10.517H266.803C270.064 10.517 272.714 13.1564 272.719 16.4227L273.017 156.431C273.022 159.697 270.383 162.351 267.112 162.356C267.106 162.356 267.101 162.356 267.101 162.356H195.105C191.844 162.356 189.195 159.717 189.19 156.451L188.891 16.443C188.886 13.1766 191.526 10.5221 194.797 10.517C194.797 10.517 194.802 10.517 194.807 10.517Z" fill="white"/>
</mask>
<g mask="url(#mask1_21_280)">
<path d="M195.53 74.2764H266.52C268.335 74.2764 269.807 75.7478 269.807 77.563V105.17C269.807 106.985 268.335 108.457 266.52 108.457H195.53C193.715 108.457 192.244 106.985 192.244 105.17V77.563C192.244 75.7478 193.715 74.2764 195.53 74.2764Z" stroke="#18233D" stroke-width="0.525851" stroke-linecap="round"/>
</g>
<mask id="mask2_21_280" style="mask-type:alpha" maskUnits="userSpaceOnUse" x="188" y="10" width="86" height="153">
<path fill-rule="evenodd" clip-rule="evenodd" d="M194.807 10.517H214.577C215.7 10.517 216.691 11.2502 217.019 12.3221C217.348 13.394 218.339 14.1272 219.461 14.1272H239.924C241.38 14.1272 242.756 13.4648 243.666 12.3221C244.571 11.1794 245.951 10.517 247.407 10.517H266.803C270.064 10.517 272.714 13.1564 272.719 16.4227L273.017 156.431C273.022 159.697 270.383 162.351 267.112 162.356C267.106 162.356 267.101 162.356 267.101 162.356H195.105C191.844 162.356 189.195 159.717 189.19 156.451L188.891 16.443C188.886 13.1766 191.526 10.5221 194.797 10.517C194.797 10.517 194.802 10.517 194.807 10.517Z" fill="white"/>
</mask>
<g mask="url(#mask2_21_280)">
<path d="M233.265 85.1221H214.668" stroke="#18233D" stroke-width="0.657313" stroke-linecap="round"/>
<path d="M233.265 91.6952H201.521" stroke="#18233D" stroke-width="0.657313" stroke-linecap="round"/>
<path d="M233.265 98.2683H226.691" stroke="#18233D" stroke-width="0.657313" stroke-linecap="round"/>
<path d="M250.785 101.226C245.339 101.226 240.925 96.8119 240.925 91.3666C240.925 85.9212 245.339 81.5069 250.785 81.5069C256.23 81.5069 260.644 85.9212 260.644 91.3666C260.644 96.8119 256.23 101.226 250.785 101.226Z" fill="white"/>
</g>
<mask id="mask3_21_280" style="mask-type:alpha" maskUnits="userSpaceOnUse" x="188" y="10" width="86" height="153">
<path fill-rule="evenodd" clip-rule="evenodd" d="M194.807 10.517H214.577C215.7 10.517 216.691 11.2502 217.019 12.3221C217.348 13.394 218.339 14.1272 219.461 14.1272H239.924C241.38 14.1272 242.756 13.4648 243.666 12.3221C244.571 11.1794 245.951 10.517 247.407 10.517H266.803C270.064 10.517 272.714 13.1564 272.719 16.4227L273.017 156.431C273.022 159.697 270.383 162.351 267.112 162.356C267.106 162.356 267.101 162.356 267.101 162.356H195.105C191.844 162.356 189.195 159.717 189.19 156.451L188.891 16.443C188.886 13.1766 191.526 10.5221 194.797 10.517C194.797 10.517 194.802 10.517 194.807 10.517Z" fill="white"/>
</mask>
<g mask="url(#mask3_21_280)">
<path d="M195.53 31.5511H266.52C268.335 31.5511 269.807 33.0224 269.807 34.8376V62.4448C269.807 64.26 268.335 65.7314 266.52 65.7314H195.53C193.715 65.7314 192.244 64.26 192.244 62.4448V34.8376C192.244 33.0224 193.715 31.5511 195.53 31.5511Z" stroke="#18233D" stroke-width="0.525851" stroke-linecap="round"/>
</g>
<mask id="mask4_21_280" style="mask-type:alpha" maskUnits="userSpaceOnUse" x="188" y="10" width="86" height="153">
<path fill-rule="evenodd" clip-rule="evenodd" d="M194.807 10.517H214.577C215.7 10.517 216.691 11.2502 217.019 12.3221C217.348 13.394 218.339 14.1272 219.461 14.1272H239.924C241.38 14.1272 242.756 13.4648 243.666 12.3221C244.571 11.1794 245.951 10.517 247.407 10.517H266.803C270.064 10.517 272.714 13.1564 272.719 16.4227L273.017 156.431C273.022 159.697 270.383 162.351 267.112 162.356C267.106 162.356 267.101 162.356 267.101 162.356H195.105C191.844 162.356 189.195 159.717 189.19 156.451L188.891 16.443C188.886 13.1766 191.526 10.5221 194.797 10.517C194.797 10.517 194.802 10.517 194.807 10.517Z" fill="white"/>
</mask>
<g mask="url(#mask4_21_280)">
<path d="M195.53 117.002H266.52C268.335 117.002 269.807 118.473 269.807 120.288V147.896C269.807 149.711 268.335 151.182 266.52 151.182H195.53C193.715 151.182 192.244 149.711 192.244 147.896V120.288C192.244 118.473 193.715 117.002 195.53 117.002Z" stroke="#18233D" stroke-width="0.525851" stroke-linecap="round"/>
</g>
<mask id="mask5_21_280" style="mask-type:alpha" maskUnits="userSpaceOnUse" x="188" y="10" width="86" height="153">
<path fill-rule="evenodd" clip-rule="evenodd" d="M194.807 10.517H214.577C215.7 10.517 216.691 11.2502 217.019 12.3221C217.348 13.394 218.339 14.1272 219.461 14.1272H239.924C241.38 14.1272 242.756 13.4648 243.666 12.3221C244.571 11.1794 245.951 10.517 247.407 10.517H266.803C270.064 10.517 272.714 13.1564 272.719 16.4227L273.017 156.431C273.022 159.697 270.383 162.351 267.112 162.356C267.106 162.356 267.101 162.356 267.101 162.356H195.105C191.844 162.356 189.195 159.717 189.19 156.451L188.891 16.443C188.886 13.1766 191.526 10.5221 194.797 10.517C194.797 10.517 194.802 10.517 194.807 10.517Z" fill="white"/>
</mask>
<g mask="url(#mask5_21_280)">
<path d="M233.265 127.848H214.668" stroke="#18233D" stroke-width="0.657313" stroke-linecap="round"/>
<path d="M233.265 134.421H201.521" stroke="#18233D" stroke-width="0.657313" stroke-linecap="round"/>
<path d="M233.265 140.994H226.691" stroke="#18233D" stroke-width="0.657313" stroke-linecap="round"/>
<path d="M250.785 143.952C245.339 143.952 240.925 139.537 240.925 134.092C240.925 128.647 245.339 124.232 250.785 124.232C256.23 124.232 260.644 128.647 260.644 134.092C260.644 139.537 256.23 143.952 250.785 143.952Z" fill="white"/>
</g>
<path fill-rule="evenodd" clip-rule="evenodd" d="M224.71 11.1743H238.513C238.695 11.1743 238.842 11.321 238.842 11.503C238.842 11.685 238.695 11.8317 238.513 11.8317H224.71C224.528 11.8317 224.381 11.685 224.381 11.503C224.381 11.321 224.528 11.1743 224.71 11.1743Z" fill="#19243D"/>
<path d="M220.766 12.489C221.31 12.489 221.752 12.0475 221.752 11.503C221.752 10.9585 221.31 10.517 220.766 10.517C220.221 10.517 219.78 10.9585 219.78 11.503C219.78 12.0475 220.221 12.489 220.766 12.489Z" fill="#19243D"/>
<path d="M277.623 42.7254H280.253" stroke="#8AACDB" stroke-width="1.18316"/>
<path fill-rule="evenodd" clip-rule="evenodd" d="M61.6958 37.1382H260.862C263.405 37.1382 265.463 39.1961 265.463 41.7394V95.6391C265.463 98.1824 263.405 100.24 260.862 100.24H61.6958C59.1525 100.24 57.0946 98.1824 57.0946 95.6391V41.7394C57.0946 39.1961 59.1525 37.1382 61.6958 37.1382Z" fill="white" stroke="#18233D" stroke-width="0.657313" stroke-linecap="round"/>
<path d="M129.217 55.543H147.814" stroke="#18233D" stroke-width="0.657313" stroke-linecap="round"/>
<path d="M129.217 62.1161H160.96" stroke="#18233D" stroke-width="0.657313" stroke-linecap="round"/>
<path d="M129.217 68.6893H135.79" stroke="#18233D" stroke-width="0.657313" stroke-linecap="round"/>
<path d="M129.217 75.2624H160.96" stroke="#18233D" stroke-width="0.657313" stroke-linecap="round"/>
<path d="M129.217 81.8355H155.509" stroke="#18233D" stroke-width="0.657313" stroke-linecap="round"/>
<path d="M200.51 100.346L186.808 74.6L192.607 71.5106L202.417 89.9407L244.924 52.7064L249.258 57.6464L200.51 100.346Z" fill="#49B58D"/>
<path fill-rule="evenodd" clip-rule="evenodd" d="M73.5829 63.7998C77.7341 62.5054 82.5476 61.8582 88.0236 61.8582C95.1933 61.8582 101.888 62.9656 108.107 65.1853C112.445 66.7325 115.489 70.6511 115.914 75.2371L116.859 85.4204H66.1148L65.3159 76.1068C64.8457 70.5752 68.2789 65.4583 73.5829 63.7998Z" fill="#8AA4D5"/>
<path d="M93.3163 19.5475C98.6835 19.5475 103.034 15.1716 103.034 9.77374C103.034 4.37585 98.6835 0 93.3163 0C87.9491 0 83.5981 4.37585 83.5981 9.77374C83.5981 15.1716 87.9491 19.5475 93.3163 19.5475Z" fill="#18233D"/>
<path d="M92.1281 26.692C96.3168 26.692 99.7125 23.2782 99.7125 19.0672C99.7125 14.8561 96.3168 11.4423 92.1281 11.4423C87.9393 11.4423 84.5437 14.8561 84.5437 19.0672C84.5437 23.2782 87.9393 26.692 92.1281 26.692Z" fill="#E5E9F4"/>
<path fill-rule="evenodd" clip-rule="evenodd" d="M80.9993 41.4209C82.1723 45.8552 82.4656 50.2642 81.8791 54.6531C80.9993 61.2363 79.7807 62.7684 77.9099 63.5723L88.0224 81.5119L98.767 63.097C95.2327 62.8493 93.463 60.2301 93.463 55.2295C93.463 50.2289 93.8169 44.6923 94.5197 38.6096L80.9993 41.4209Z" fill="#FBD1AC"/>
<path fill-rule="evenodd" clip-rule="evenodd" d="M80.6605 68.2949C84.2757 70.9545 89.3421 70.9545 95.8596 68.2949L88.0224 81.517L80.6605 68.2949Z" fill="#D8E1F4"/>
<path fill-rule="evenodd" clip-rule="evenodd" d="M77.1059 39.0747C73.4401 33.3814 71.9081 21.12 79.897 18.7587C88.4218 8.61079 99.9349 12.9339 102.246 21.5548C104.556 30.1757 101.7 40.7433 95.0051 42.2046C88.3055 43.6658 80.7717 44.7681 77.1059 39.0747Z" fill="#18233D"/>
<path fill-rule="evenodd" clip-rule="evenodd" d="M94.095 44.0299C93.9737 45.0108 93.822 47.2305 93.5793 51.1441C93.372 54.4306 93.4428 56.802 93.7816 58.2582C86.8241 55.1031 82.9409 52.6104 82.1319 50.78C82.1875 48.8789 82.1269 47.1547 81.955 45.5973L94.095 44.0299Z" fill="#D08C54"/>
<path fill-rule="evenodd" clip-rule="evenodd" d="M77.9148 32.6331C80.1093 31.3539 81.9346 28.578 83.4009 24.3105C82.5464 28.5325 91.86 32.7696 98.8073 33.5281C99.0348 33.4573 99.2775 33.4219 99.5303 33.4219C100.941 33.4219 102.089 34.605 102.089 36.0663C102.089 37.5276 100.946 38.7107 99.5303 38.7107C98.873 38.7107 98.2713 38.4529 97.8163 38.0332C95.7432 44.2322 91.3847 52.1856 86.4903 51.4373C82.9509 50.9014 80.175 46.371 78.1626 37.8461C77.9907 37.8866 77.8087 37.9068 77.6216 37.9068C76.2109 37.9068 75.0631 36.7236 75.0631 35.2624C75.0631 33.8011 76.2058 32.6179 77.6216 32.6179C77.7227 32.6179 77.8188 32.623 77.9148 32.6331Z" fill="#FBD1AC"/>
<path d="M87.0618 34.5545C87.3955 35.8287 86.9202 38.1596 85.641 41.5422L87.6635 42.2653" stroke="#18233D" stroke-width="0.657313" stroke-linecap="round"/>
<path d="M89.9084 32.4005C91.4 31.6825 92.9119 31.819 94.4439 32.8101" stroke="#18233D" stroke-width="0.657313" stroke-linecap="round"/>
<path d="M80.7667 32.628C82.1724 31.7584 83.6943 31.7331 85.3224 32.5572" stroke="#18233D" stroke-width="0.657313" stroke-linecap="round"/>
<path d="M91.8904 35.2724C92.2842 35.2724 92.6034 34.9533 92.6034 34.5595C92.6034 34.1658 92.2842 33.8466 91.8904 33.8466C91.4967 33.8466 91.1775 34.1658 91.1775 34.5595C91.1775 34.9533 91.4967 35.2724 91.8904 35.2724Z" fill="#18233D"/>
<path d="M83.3605 35.2724C83.7543 35.2724 84.0735 34.9533 84.0735 34.5595C84.0735 34.1658 83.7543 33.8466 83.3605 33.8466C82.9668 33.8466 82.6476 34.1658 82.6476 34.5595C82.6476 34.9533 82.9668 35.2724 83.3605 35.2724Z" fill="#18233D"/>
<path fill-rule="evenodd" clip-rule="evenodd" d="M85.019 44.1866L89.3573 43.858C88.9478 45.3192 88.2247 46.0524 87.1882 46.0524C86.1516 46.0524 85.4286 45.4305 85.019 44.1866Z" fill="white"/>
<path d="M98.767 36.7034L100.188 36.2281" stroke="#18233D" stroke-width="0.657313" stroke-linecap="round"/>
<path d="M77.9099 35.7528L76.484 35.2775" stroke="#18233D" stroke-width="0.657313" stroke-linecap="round"/>
<path d="M85.9645 22.8796C88.4774 27.2684 92.4314 29.9735 97.8163 30.9847" stroke="white" stroke-width="0.657313" stroke-linecap="round"/>
<path d="M81.1825 58.2632C78.806 59.9571 77.7897 62.9908 78.6695 65.7718L80.2774 70.8634C81.2735 74.0135 84.1909 76.1523 87.4927 76.1523C90.7792 76.1523 93.6664 73.9832 94.5816 70.828L96.1187 65.5291C96.8923 62.8594 95.967 59.9824 93.7776 58.2632" stroke="#18233D" stroke-width="0.657313" stroke-linecap="round"/>
<path d="M87.6594 76.1523C87.6594 80.1215 90.8803 83.3423 94.8494 83.3423H95.3449C99.5922 83.3423 103.03 79.899 103.03 75.6568V52.6508C103.03 50.5525 104.734 48.8485 106.833 48.8485" stroke="#18233D" stroke-width="0.657313" stroke-linecap="round"/>
<path fill-rule="evenodd" clip-rule="evenodd" d="M84.8078 74.8781L84.4185 76.4304L86.7645 77.2141L87.705 79.5602L89.0399 79.1304L88.7719 77.0169L90.4607 76.4304L89.9702 74.8781C89.0449 75.1512 88.155 75.2877 87.3056 75.2877C86.4511 75.2826 85.6168 75.1461 84.8078 74.8781Z" fill="#527ABC"/>
<path fill-rule="evenodd" clip-rule="evenodd" d="M106.272 48.8535L110.549 45.3091V52.5497L106.272 48.8535Z" fill="#527ABC"/>
<path fill-rule="evenodd" clip-rule="evenodd" d="M110.261 44.5153C110.423 44.5153 110.549 44.6468 110.549 44.8035V52.8986C110.549 53.0604 110.418 53.1868 110.261 53.1868C110.099 53.1868 109.973 53.0553 109.973 52.8986V44.8035C109.973 44.6468 110.104 44.5153 110.261 44.5153Z" fill="#18233D"/>
<path d="M239.326 100.752C245.856 76.3816 231.677 51.4079 207.658 44.9717C183.638 38.5355 158.872 53.0742 152.342 77.4446C145.812 101.815 159.99 126.789 184.01 133.225C208.03 139.661 232.795 125.123 239.326 100.752Z" fill="#3660AA"/>
<path d="M236.698 94.8372C243.228 70.4667 229.05 45.4931 205.03 39.0569C181.011 32.6207 156.245 47.1594 149.715 71.5298C143.185 95.9003 157.363 120.874 181.383 127.31C205.403 133.746 230.168 119.208 236.698 94.8372Z" fill="white"/>
<path d="M230.449 93.8151C235.93 73.3585 223.876 52.3544 203.524 46.9013C183.173 41.4481 162.231 53.6109 156.75 74.0675C151.269 94.5241 163.323 115.528 183.675 120.981C204.026 126.434 224.968 114.272 230.449 93.8151Z" stroke="#19243D" stroke-width="0.657313"/>
<mask id="mask6_21_280" style="mask-type:alpha" maskUnits="userSpaceOnUse" x="155" y="45" width="77" height="78">
<path d="M230.449 93.8151C235.93 73.3585 223.876 52.3544 203.524 46.9013C183.173 41.4481 162.231 53.6109 156.75 74.0675C151.269 94.5241 163.323 115.528 183.675 120.981C204.026 126.434 224.968 114.272 230.449 93.8151Z" fill="white"/>
</mask>
<g mask="url(#mask6_21_280)">
<path d="M185.641 100.684L170.277 73.0006L179.475 67.901L188.399 83.9809L228.404 47.6775L235.472 55.4657L185.641 100.684Z" fill="#49B58D"/>
</g>
<path fill-rule="evenodd" clip-rule="evenodd" d="M170.307 125.044L165.1 120.975C164.526 120.527 163.703 120.628 163.255 121.202L144.817 144.801C144.368 145.375 144.469 146.198 145.043 146.646L150.251 150.715C150.824 151.163 151.648 151.062 152.096 150.489L170.534 126.889C170.982 126.315 170.881 125.492 170.307 125.044Z" fill="#D8E1F4"/>
<path d="M162.059 136.225L156.322 131.743C154.891 130.625 152.826 130.879 151.708 132.309L98.2902 200.681C97.1727 202.112 97.4263 204.177 98.8566 205.295L104.594 209.777C106.025 210.895 108.09 210.641 109.207 209.211L162.626 140.839C163.743 139.408 163.489 137.343 162.059 136.225Z" fill="#19243D"/>
<path fill-rule="evenodd" clip-rule="evenodd" d="M55.1194 191.11L94.9174 160.069C95.2556 159.803 95.5984 159.547 95.9413 159.291L116.776 143.778C122.454 139.549 129.767 138.17 136.597 140.043L144.841 142.304L167.483 136.482C169.8 135.885 172.165 137.283 172.762 139.601C172.815 139.815 172.858 140.039 172.88 140.263C173.186 143.38 171.795 146.423 169.238 148.23L162.427 153.047C166.228 154.885 167.819 159.453 165.986 163.254C165.463 164.334 164.696 165.274 163.745 166.004L159.581 169.183C162.666 171.097 163.618 175.147 161.704 178.227C161.264 178.935 160.691 179.558 160.021 180.051L153.987 184.505C154.752 188.397 152.794 192.31 149.217 194.027L148.317 194.456C143.727 196.658 138.708 197.824 133.617 197.868L103.864 198.135L76.7266 228.813L55.1194 191.11Z" fill="#F7B293"/>
<path fill-rule="evenodd" clip-rule="evenodd" d="M130.116 147.886L123.368 151.476L125.386 147.994C126.888 145.406 129.548 143.713 132.527 143.447L144.51 142.378L130.116 147.886Z" fill="#F39972"/>
<path d="M144.51 142.373L129.846 148.226" stroke="#18233D" stroke-width="0.657313" stroke-linecap="round"/>
<path fill-rule="evenodd" clip-rule="evenodd" d="M136.278 146.133L133.651 146.042C132.105 145.988 130.615 146.614 129.579 147.761L128.668 148.762L136.278 146.133Z" fill="#18233D"/>
<path d="M162.656 152.842L150.878 158.796" stroke="#18233D" stroke-width="0.657313" stroke-linecap="round"/>
<path d="M159.782 168.947L154.064 171.874" stroke="#18233D" stroke-width="0.657313" stroke-linecap="round"/>
<path d="M154.633 183.814L148.92 186.741" stroke="#18233D" stroke-width="0.657313" stroke-linecap="round"/>
<path fill-rule="evenodd" clip-rule="evenodd" d="M-4.26607e-05 234.082L71.2165 176.818C86.1667 187.398 93.8578 199.252 94.295 212.376L79.1886 234.085L-4.26607e-05 234.082Z" fill="#D8E1F4"/>
</svg>
