<svg width="109" height="87" viewBox="0 0 109 87" fill="none" xmlns="http://www.w3.org/2000/svg">
<g clip-path="url(#clip0_1467_67)">
<path d="M16.7 38.0625C22.6569 38.0625 27.5 33.1858 27.5 27.1875C27.5 21.1893 22.6569 16.3125 16.7 16.3125C10.7431 16.3125 5.9 21.1893 5.9 27.1875C5.9 33.1858 10.7431 38.0625 16.7 38.0625ZM92.3 38.0625C98.2569 38.0625 103.1 33.1858 103.1 27.1875C103.1 21.1893 98.2569 16.3125 92.3 16.3125C86.3431 16.3125 81.5 21.1893 81.5 27.1875C81.5 33.1858 86.3431 38.0625 92.3 38.0625ZM97.7 43.5H86.9C83.93 43.5 81.2469 44.7065 79.2894 46.6606C86.09 50.4159 90.9163 57.1957 91.9625 65.25H103.1C106.087 65.25 108.5 62.8202 108.5 59.8125V54.375C108.5 48.3768 103.657 43.5 97.7 43.5ZM54.5 43.5C64.9456 43.5 73.4 34.987 73.4 24.4688C73.4 13.9506 64.9456 5.43755 54.5 5.43755C44.0544 5.43755 35.6 13.9506 35.6 24.4688C35.6 34.987 44.0544 43.5 54.5 43.5ZM67.46 48.9375H66.0594C62.5494 50.6368 58.6513 51.6563 54.5 51.6563C50.3488 51.6563 46.4675 50.6368 42.9406 48.9375H41.54C30.8075 48.9375 22.1 57.7055 22.1 68.5125V73.4063C22.1 77.9092 25.7281 81.5625 30.2 81.5625H78.8C83.2719 81.5625 86.9 77.9092 86.9 73.4063V68.5125C86.9 57.7055 78.1925 48.9375 67.46 48.9375ZM29.7106 46.6606C27.7531 44.7065 25.07 43.5 22.1 43.5H11.3C5.34313 43.5 0.5 48.3768 0.5 54.375V59.8125C0.5 62.8202 2.91312 65.25 5.9 65.25H17.0206C18.0837 57.1957 22.91 50.4159 29.7106 46.6606Z" fill="#144A6A"/>
</g>
<defs>
<clipPath id="clip0_1467_67">
<rect width="108" height="87" fill="white" transform="translate(0.5)"/>
</clipPath>
</defs>
</svg>
