<svg width="25" height="25" viewBox="0 0 25 25" fill="none" xmlns="http://www.w3.org/2000/svg">
<path d="M20.8643 7.04834C21.0107 7.19482 21.0938 7.39258 21.0938 7.6001V22.6562C21.0938 23.0884 20.7446 23.4375 20.3125 23.4375H4.6875C4.25537 23.4375 3.90625 23.0884 3.90625 22.6562V2.34375C3.90625 1.91162 4.25537 1.5625 4.6875 1.5625H15.0562C15.2637 1.5625 15.4639 1.64551 15.6104 1.79199L20.8643 7.04834ZM19.292 7.95898L14.6973 3.36426V7.95898H19.292ZM7.8125 11.7676C7.7607 11.7676 7.71102 11.7882 7.67439 11.8248C7.63776 11.8614 7.61719 11.9111 7.61719 11.9629V13.1348C7.61719 13.1866 7.63776 13.2362 7.67439 13.2729C7.71102 13.3095 7.7607 13.3301 7.8125 13.3301H17.1875C17.2393 13.3301 17.289 13.3095 17.3256 13.2729C17.3622 13.2362 17.3828 13.1866 17.3828 13.1348V11.9629C17.3828 11.9111 17.3622 11.8614 17.3256 11.8248C17.289 11.7882 17.2393 11.7676 17.1875 11.7676H7.8125ZM7.8125 15.0879C7.7607 15.0879 7.71102 15.1085 7.67439 15.1451C7.63776 15.1817 7.61719 15.2314 7.61719 15.2832V16.4551C7.61719 16.5069 7.63776 16.5566 7.67439 16.5932C7.71102 16.6298 7.7607 16.6504 7.8125 16.6504H12.3047C12.3565 16.6504 12.4062 16.6298 12.4428 16.5932C12.4794 16.5566 12.5 16.5069 12.5 16.4551V15.2832C12.5 15.2314 12.4794 15.1817 12.4428 15.1451C12.4062 15.1085 12.3565 15.0879 12.3047 15.0879H7.8125Z" fill="#144A6A"/>
</svg>
