<svg width="24" height="20" viewBox="0 0 24 20" fill="none" xmlns="http://www.w3.org/2000/svg">
<path d="M3.6 8.40001C4.92375 8.40001 6 7.32376 6 6.00001C6 4.67626 4.92375 3.60001 3.6 3.60001C2.27625 3.60001 1.2 4.67626 1.2 6.00001C1.2 7.32376 2.27625 8.40001 3.6 8.40001ZM20.4 8.40001C21.7238 8.40001 22.8 7.32376 22.8 6.00001C22.8 4.67626 21.7238 3.60001 20.4 3.60001C19.0763 3.60001 18 4.67626 18 6.00001C18 7.32376 19.0763 8.40001 20.4 8.40001ZM21.6 9.60001H19.2C18.54 9.60001 17.9438 9.86626 17.5088 10.2975C19.02 11.1263 20.0925 12.6225 20.325 14.4H22.8C23.4638 14.4 24 13.8638 24 13.2V12C24 10.6763 22.9238 9.60001 21.6 9.60001ZM12 9.60001C14.3213 9.60001 16.2 7.72126 16.2 5.40001C16.2 3.07876 14.3213 1.20001 12 1.20001C9.67875 1.20001 7.8 3.07876 7.8 5.40001C7.8 7.72126 9.67875 9.60001 12 9.60001ZM14.88 10.8H14.5688C13.7888 11.175 12.9225 11.4 12 11.4C11.0775 11.4 10.215 11.175 9.43125 10.8H9.12C6.735 10.8 4.8 12.735 4.8 15.12V16.2C4.8 17.1938 5.60625 18 6.6 18H17.4C18.3938 18 19.2 17.1938 19.2 16.2V15.12C19.2 12.735 17.265 10.8 14.88 10.8ZM6.49125 10.2975C6.05625 9.86626 5.46 9.60001 4.8 9.60001H2.4C1.07625 9.60001 0 10.6763 0 12V13.2C0 13.8638 0.53625 14.4 1.2 14.4H3.67125C3.9075 12.6225 4.98 11.1263 6.49125 10.2975Z" fill="#144A6A"/>
</svg>
