<svg width="25" height="25" viewBox="0 0 25 25" fill="none" xmlns="http://www.w3.org/2000/svg">
<path d="M3.125 4.16667C2.57246 4.16667 2.04256 4.38617 1.65186 4.77687C1.26116 5.16757 1.04166 5.69747 1.04166 6.25V17.7083H3.125C3.125 18.5371 3.45424 19.332 4.04029 19.918C4.62634 20.5041 5.4212 20.8333 6.25 20.8333C7.0788 20.8333 7.87366 20.5041 8.45971 19.918C9.04576 19.332 9.375 18.5371 9.375 17.7083H15.625C15.625 18.5371 15.9542 19.332 16.5403 19.918C17.1263 20.5041 17.9212 20.8333 18.75 20.8333C19.5788 20.8333 20.3737 20.5041 20.9597 19.918C21.5458 19.332 21.875 18.5371 21.875 17.7083H23.9583V12.5L20.8333 8.33334H17.7083V4.16667H3.125ZM10.4167 6.25L14.5833 10.4167L10.4167 14.5833V11.4583H4.16666V9.375H10.4167V6.25ZM17.7083 9.89584H20.3125L22.3646 12.5H17.7083V9.89584ZM6.25 16.1458C6.6644 16.1458 7.06183 16.3105 7.35485 16.6035C7.64788 16.8965 7.8125 17.2939 7.8125 17.7083C7.8125 18.1227 7.64788 18.5202 7.35485 18.8132C7.06183 19.1062 6.6644 19.2708 6.25 19.2708C5.8356 19.2708 5.43817 19.1062 5.14514 18.8132C4.85212 18.5202 4.6875 18.1227 4.6875 17.7083C4.6875 17.2939 4.85212 16.8965 5.14514 16.6035C5.43817 16.3105 5.8356 16.1458 6.25 16.1458ZM18.75 16.1458C19.1644 16.1458 19.5618 16.3105 19.8549 16.6035C20.1479 16.8965 20.3125 17.2939 20.3125 17.7083C20.3125 18.1227 20.1479 18.5202 19.8549 18.8132C19.5618 19.1062 19.1644 19.2708 18.75 19.2708C18.3356 19.2708 17.9382 19.1062 17.6451 18.8132C17.3521 18.5202 17.1875 18.1227 17.1875 17.7083C17.1875 17.2939 17.3521 16.8965 17.6451 16.6035C17.9382 16.3105 18.3356 16.1458 18.75 16.1458Z" fill="#144A6A"/>
</svg>
