<svg width="23" height="23" viewBox="0 0 23 23" fill="none" xmlns="http://www.w3.org/2000/svg">
<g clip-path="url(#clip0_91_74)">
<path d="M19.8716 0.144821H3.05826C1.41052 0.144821 0.0704117 1.48529 0.0704117 3.13338V19.9449C0.0704117 21.593 1.41052 22.9339 3.05826 22.9339H19.8716C21.519 22.9339 22.8595 21.593 22.8595 19.9449V3.13338C22.8595 1.48529 21.519 0.144821 19.8716 0.144821ZM16.0518 3.17399C16.4227 3.17399 16.7785 3.32129 17.0408 3.58351C17.3032 3.84573 17.4507 4.2014 17.4509 4.57232C17.4509 5.34462 16.9567 5.97137 16.0518 5.97137C15.8655 5.97559 15.6802 5.94254 15.5068 5.87415C15.3334 5.80575 15.1754 5.7034 15.0421 5.5731C14.9088 5.44281 14.8029 5.28719 14.7306 5.11539C14.6583 4.94359 14.6211 4.75907 14.6211 4.57268C14.6211 4.38629 14.6583 4.20177 14.7306 4.02997C14.8029 3.85817 14.9088 3.70256 15.0421 3.57226C15.1754 3.44196 15.3334 3.33961 15.5068 3.27122C15.6802 3.20282 15.8655 3.16977 16.0518 3.17399ZM13.0255 7.56807C13.1553 7.11562 13.727 6.31385 14.7175 6.31385H17.3851C18.3759 6.31385 18.9484 7.11562 19.077 7.56807L20.0513 10.8452H18.8391L18.1258 8.37523H17.6564L18.3443 10.8452H13.7583L14.4458 8.37523H13.9768L13.2645 10.8452H12.0523L13.0255 7.56807ZM6.73862 3.16106C6.92243 3.16106 7.10445 3.19726 7.27428 3.26761C7.44411 3.33795 7.59842 3.44106 7.7284 3.57104C7.85838 3.70102 7.96148 3.85533 8.03183 4.02515C8.10217 4.19498 8.13838 4.377 8.13838 4.56082C8.13838 4.74464 8.10217 4.92666 8.03183 5.09649C7.96148 5.26632 7.85838 5.42062 7.7284 5.5506C7.59842 5.68059 7.44411 5.78369 7.27428 5.85404C7.10445 5.92438 6.92243 5.96059 6.73862 5.96059C6.36737 5.96059 6.01134 5.81311 5.74883 5.5506C5.48632 5.2881 5.33885 4.93206 5.33885 4.56082C5.33885 4.18958 5.48632 3.83354 5.74883 3.57104C6.01134 3.30853 6.36737 3.16106 6.73862 3.16106ZM6.76018 10.0524C6.71633 9.97517 6.58265 9.65316 6.47447 9.38902L5.54908 13.2962L5.55052 19.3491C5.55232 19.9511 5.14083 20.4416 4.53924 20.4434C3.93729 20.4459 3.50208 19.96 3.49741 19.3574L3.49166 12.2123C3.49166 11.8759 3.62463 11.0777 3.7019 10.783L4.56979 7.12496C4.72144 6.48671 5.36257 6.08565 5.99866 6.2427C6.20864 6.29113 6.40382 6.38954 6.56762 6.52957C6.73142 6.66959 6.859 6.84709 6.93951 7.04698C7.06996 7.37221 7.65107 8.84277 7.78691 9.14716C7.83471 9.2521 7.93533 9.30781 7.95582 9.31715C8.07082 9.36854 8.35688 9.46845 8.87618 9.7024L9.16907 9.83429L8.91499 9.34842L8.50638 8.56893C8.50638 8.56893 8.45212 8.43309 8.57251 8.37487C8.70655 8.30982 8.77915 8.41943 8.77915 8.41943L10.0107 10.7155C10.0107 10.7155 10.1128 10.9394 10.0546 11.1244C9.85044 11.1133 9.7128 10.8704 9.7128 10.8704L9.69052 10.8276L9.62583 10.9616C9.53728 11.0743 9.41504 11.1557 9.27694 11.194C9.13884 11.2323 8.99212 11.2254 8.85821 11.1744C8.38958 10.9606 7.17813 10.4592 7.17813 10.4592C6.9679 10.3604 6.86512 10.235 6.76054 10.0528L6.76018 10.0524ZM11.1406 10.7726L11.4949 11.1528L8.76872 13.6904L8.41438 13.3105L11.141 10.7726H11.1406ZM20.1052 12.5893H12.3858C12.1224 12.5893 11.9801 12.7377 11.8964 12.8157C11.5564 13.1316 9.29305 15.2206 9.29305 15.2206L8.61311 14.55C8.61311 14.55 11.1607 12.0782 11.4784 11.7825C11.6628 11.6125 11.8841 11.5208 12.1177 11.5208H20.1056V12.5896L20.1052 12.5893Z" fill="#144A6A"/>
</g>
<defs>
<clipPath id="clip0_91_74">
<rect width="23" height="23" fill="white"/>
</clipPath>
</defs>
</svg>
