<svg width="20" height="20" viewBox="0 0 20 20" fill="none" xmlns="http://www.w3.org/2000/svg">
<g clip-path="url(#clip0_91_91)">
<path d="M19.6376 10.3881L16.4571 14.1316C16.314 14.2813 16.1222 14.3593 15.8815 14.3655C15.6409 14.3718 15.4327 14.325 15.2571 14.2252C15.0815 14.1253 14.9937 14.0068 14.9937 13.8695V11.9791H12.4961C12.1579 11.9791 11.8652 11.8637 11.6181 11.6328C11.3709 11.402 11.2474 11.1181 11.2474 10.7812V8.38532C11.2474 8.04841 11.3709 7.76453 11.6181 7.53368C11.8652 7.30283 12.1579 7.18741 12.4961 7.18741H14.9937V5.31566C14.9937 5.16592 15.0815 5.04114 15.2571 4.94131C15.4327 4.84149 15.6409 4.79469 15.8815 4.80093C16.1222 4.80717 16.314 4.88516 16.4571 5.0349L19.6376 8.75967C19.8718 8.98428 19.9888 9.25569 19.9888 9.57388C19.9888 9.89208 19.8718 10.1635 19.6376 10.3881ZM12.5059 4.79157C12.1612 4.79157 11.8652 4.67303 11.6181 4.43594C11.3709 4.19886 11.2474 3.91497 11.2474 3.5843C11.2474 3.25362 11.127 2.97286 10.8864 2.74201C10.6457 2.51117 10.3498 2.39574 9.99858 2.39574H3.75468C3.41647 2.39574 3.12379 2.51117 2.87663 2.74201C2.62948 2.97286 2.5059 3.25674 2.5059 3.59366V15.5728C2.5059 15.8973 2.62948 16.178 2.87663 16.4151C3.12379 16.6522 3.41647 16.7707 3.75468 16.7707H9.99858C10.3498 16.7707 10.6457 16.6522 10.8864 16.4151C11.127 16.178 11.2474 15.8941 11.2474 15.5635C11.2474 15.2328 11.3709 14.952 11.6181 14.7212C11.8652 14.4903 12.1612 14.3749 12.5059 14.3749C12.8506 14.3749 13.1433 14.4903 13.3839 14.7212C13.6246 14.952 13.7449 15.2359 13.7449 15.5728V16.7707C13.7449 17.4321 13.501 17.9967 13.0132 18.4647C12.5254 18.9326 11.9368 19.1666 11.2474 19.1666H2.5059C1.81647 19.1666 1.22785 18.9326 0.740046 18.4647C0.252241 17.9967 0.00833893 17.4321 0.00833893 16.7707V2.39574C0.00833893 1.73439 0.252241 1.16975 0.740046 0.701813C1.22785 0.233877 1.81647 -9.15527e-05 2.5059 -9.15527e-05H11.2474C11.9368 -9.15527e-05 12.5254 0.233877 13.0132 0.701813C13.501 1.16975 13.7449 1.73439 13.7449 2.39574V3.59366C13.7449 3.91809 13.6246 4.19886 13.3839 4.43594C13.1433 4.67303 12.8506 4.79157 12.5059 4.79157Z" fill="white"/>
</g>
<defs>
<clipPath id="clip0_91_91">
<rect width="20" height="19.1667" fill="white"/>
</clipPath>
</defs>
</svg>
