<svg width="107" height="43" viewBox="0 0 107 43" fill="none" xmlns="http://www.w3.org/2000/svg">
<path d="M72.2872 35.2784C72.1581 35.2784 72.0312 35.2749 71.9033 35.2692C71.8629 35.2669 71.8237 35.2623 71.7834 35.26C71.6969 35.2542 71.6105 35.2484 71.5252 35.2404C71.4779 35.2358 71.433 35.2288 71.3857 35.2231C71.3073 35.2139 71.2289 35.2046 71.1517 35.1931C71.1033 35.1862 71.056 35.1758 71.0076 35.1677C70.9327 35.1551 70.8589 35.1424 70.7851 35.1274C70.7379 35.117 70.6906 35.1055 70.6433 35.094C70.5707 35.0778 70.4969 35.0617 70.4243 35.0432C70.3782 35.0317 70.3344 35.0167 70.2883 35.0052C70.2156 34.9845 70.1419 34.9649 70.0704 34.943C70.0277 34.9291 69.9862 34.9141 69.9436 34.9003C69.8698 34.8761 69.796 34.8519 69.7234 34.8254C69.6842 34.8104 69.645 34.7942 69.6058 34.7793C68.6202 34.3965 67.7349 33.8121 67.0029 33.0743C65.6691 31.729 64.8449 29.8777 64.8449 27.8384C64.8449 23.7346 68.1833 20.395 72.2883 20.395C74.3276 20.395 76.1789 21.2204 77.5242 22.553L82.7543 17.3229C80.0695 14.6508 76.3714 13 72.2872 13C64.5106 13 58.1312 18.984 57.5029 26.5992C57.5018 26.5992 57.5006 26.5981 57.5006 26.5981C57.5006 26.6073 57.5006 26.6154 57.5018 26.6246C57.4741 26.9739 57.458 27.3266 57.4545 27.6828C57.4453 27.7566 57.4361 27.8315 57.4257 27.9053C57.4107 29.3382 56.9853 30.7676 56.1519 31.9988C56.1507 31.993 56.1484 31.9873 56.1472 31.9815C55.7173 32.6201 55.1905 33.1884 54.5887 33.6668C54.093 34.0611 53.5455 34.3931 52.9587 34.6513C50.2047 35.8467 46.8755 35.2992 44.6576 33.0247C44.0098 32.3608 43.5141 31.6057 43.1648 30.8011L41.3549 32.6109L43.1648 30.8011C41.9682 28.0471 42.5158 24.7167 44.7902 22.4988C45.0599 22.236 45.3447 21.9985 45.6409 21.7852C45.672 21.7622 45.7043 21.7403 45.7354 21.7172C45.7781 21.6873 45.8219 21.6573 45.8646 21.6285C45.9395 21.5789 46.0144 21.5305 46.0905 21.4832C46.1159 21.4682 46.1412 21.4533 46.1654 21.4383C46.2346 21.3968 46.3049 21.3564 46.3752 21.3172C46.4006 21.3034 46.4248 21.2896 46.4502 21.2757C46.5401 21.2273 46.6311 21.18 46.7234 21.1362C46.7418 21.127 46.7614 21.1189 46.7798 21.1097C46.8663 21.0682 46.9539 21.029 47.0415 20.991C47.0554 20.9852 47.0703 20.9783 47.0842 20.9725C47.1822 20.931 47.2813 20.8919 47.3816 20.855C47.4024 20.8469 47.4219 20.84 47.4427 20.8331C47.5453 20.7962 47.649 20.7604 47.7551 20.727C47.7563 20.727 47.7563 20.727 47.7574 20.7259C47.8658 20.6924 47.9764 20.6613 48.0871 20.6325C48.0986 20.629 48.1101 20.6267 48.1217 20.6233C48.2358 20.5944 48.3511 20.5668 48.4663 20.5437C48.4675 20.5437 48.4687 20.5437 48.4698 20.5426C48.9528 20.4434 49.4531 20.3916 49.9661 20.3916C50.9932 20.3916 51.9961 20.644 52.9068 21.0555L58.3364 15.626C55.9686 14.0248 53.0428 13 49.9673 13C49.7528 13 49.5407 13.0058 49.3286 13.015C49.3286 13.0127 49.3286 13.0104 49.3286 13.0081C48.1828 13.0588 47.0415 13.2421 45.9303 13.5568C45.9141 13.5614 45.8968 13.566 45.8807 13.5706C45.7896 13.5971 45.6974 13.6236 45.6063 13.6525C45.5775 13.6617 45.5475 13.6709 45.5187 13.6801C45.4415 13.7043 45.3643 13.7297 45.2882 13.7551C45.249 13.7677 45.2098 13.7804 45.1706 13.7943C45.106 13.8162 45.0415 13.8392 44.9769 13.8623C44.9274 13.8796 44.8789 13.8969 44.8294 13.9153C44.7798 13.9337 44.7314 13.9522 44.6818 13.9718C44.6196 13.996 44.5573 14.019 44.4951 14.0433C44.4755 14.0513 44.4559 14.0594 44.4351 14.0675C38.9814 16.26 35.1311 21.5985 35.1311 27.8361C35.1311 30.9521 36.0925 33.8432 37.7341 36.2306C40.4085 40.12 44.8893 42.6711 49.9673 42.6711C51.8751 42.6711 53.6988 42.3103 55.3749 41.6544C55.4429 41.6279 55.5121 41.6002 55.5801 41.5714C55.6078 41.5598 55.6366 41.5483 55.6642 41.5368C56.568 41.1633 57.4418 40.6953 58.273 40.1339C58.9992 39.6439 59.6932 39.0825 60.3433 38.4485C60.62 38.1788 60.8828 37.901 61.133 37.6162C61.3393 37.8514 61.5526 38.0785 61.7728 38.2998C62.793 39.3246 63.9619 40.2007 65.2449 40.8947C65.2437 40.8947 65.2437 40.8958 65.2426 40.8958C65.3106 40.9327 65.3798 40.9673 65.4478 41.0031C65.4789 41.0192 65.5089 41.0353 65.5389 41.0503C65.6184 41.0907 65.6979 41.1299 65.7775 41.1691C65.8178 41.1887 65.8582 41.2082 65.8985 41.2278C65.9758 41.2647 66.053 41.3016 66.1314 41.3374C66.174 41.357 66.2167 41.3754 66.2593 41.395C66.5153 41.5091 66.7735 41.6152 67.0363 41.7143C67.0939 41.7362 67.1516 41.7581 67.2092 41.7789C67.2772 41.8031 67.3453 41.8273 67.4133 41.8515C67.4755 41.8734 67.5389 41.8953 67.6023 41.916C67.668 41.938 67.7337 41.9599 67.7994 41.9806C67.8698 42.0025 67.9401 42.0244 68.0115 42.0452C68.0715 42.0636 68.1314 42.082 68.1914 42.0993C68.3159 42.1351 68.4415 42.1697 68.5672 42.2019C68.6144 42.2146 68.6629 42.225 68.7101 42.2365C68.7977 42.2584 68.8865 42.2803 68.9753 42.2999C69.0317 42.3126 69.0882 42.3253 69.1447 42.3368C69.2266 42.3541 69.3096 42.3714 69.3926 42.3875C69.449 42.3991 69.5055 42.4094 69.562 42.4198C69.6519 42.4359 69.7419 42.4521 69.8318 42.4671C69.8802 42.4751 69.9298 42.4844 69.9782 42.4913C70.1154 42.5132 70.2525 42.5328 70.3909 42.5501C70.4151 42.5535 70.4393 42.5558 70.4623 42.5581C70.5799 42.5731 70.6986 42.5858 70.8162 42.5973C70.8646 42.6019 70.9142 42.6066 70.9626 42.61C71.0583 42.6181 71.1551 42.6262 71.2508 42.6331C71.3027 42.6365 71.3546 42.64 71.4064 42.6434C71.5056 42.6492 71.6059 42.6538 71.705 42.6573C71.7511 42.6596 71.7972 42.6607 71.8433 42.663C71.9874 42.6677 72.1327 42.67 72.2779 42.67H72.2791C76.3634 42.67 80.0614 41.0192 82.7451 38.3482L77.515 33.1181C76.1766 34.453 74.3264 35.2784 72.2872 35.2784Z" fill="#254A68"/>
<path d="M41.4977 32.5676L35.8962 26.9661L25.8253 37.0369L31.4269 42.6384L41.4977 32.5676Z" fill="#254A68"/>
<path d="M31.4273 20.3731H24V42.6388H31.4273V20.3731Z" fill="#254A68"/>
<path d="M31.4273 13.0338H24V16.6996H31.4273V13.0338Z" fill="#8CBB9F"/>
<path d="M0.696288 6.47164C0.231722 6.01053 1.52588e-05 5.31196 1.52588e-05 4.37706V0.336607C1.52588e-05 0.263983 0.0196123 0.205192 0.0599592 0.162539C0.0991534 0.119887 0.152181 0.0979843 0.219041 0.0979843H0.696288C0.768912 0.0979843 0.82655 0.119887 0.870356 0.162539C0.913008 0.206344 0.934911 0.263983 0.934911 0.336607V4.39666C0.934911 5.04682 1.08592 5.53098 1.38795 5.84915C1.68997 6.16731 2.1188 6.32639 2.67674 6.32639C3.22777 6.32639 3.65314 6.16616 3.95516 5.84338C4.25719 5.52176 4.4082 5.03875 4.4082 4.3955V0.336607C4.4082 0.263983 4.4278 0.205192 4.46815 0.162539C4.50849 0.119887 4.56383 0.0979843 4.6376 0.0979843H5.11485C5.18171 0.0979843 5.23589 0.119887 5.27854 0.162539C5.3212 0.206344 5.3431 0.263983 5.3431 0.336607V4.37591C5.3431 5.3108 5.11254 6.00938 4.65144 6.47049C4.19033 6.9316 3.5321 7.16215 2.67674 7.16215C1.82139 7.16215 1.16085 6.93275 0.696288 6.47164Z" fill="#6F7071"/>
<path d="M6.95928 6.99846C6.91547 6.95581 6.89472 6.90048 6.89472 6.83477V2.11879C6.89472 2.05193 6.91662 1.99775 6.95928 1.9551C7.00193 1.91245 7.05726 1.89054 7.12297 1.89054H7.54027C7.60598 1.89054 7.66016 1.91245 7.69935 1.9551C7.7397 1.9989 7.7593 2.05308 7.7593 2.11879V2.45655C8.11781 2.01274 8.60197 1.79025 9.21179 1.79025C9.94149 1.79025 10.4591 2.09574 10.7634 2.70555C10.9225 2.42658 11.1496 2.20525 11.4447 2.03925C11.7398 1.87325 12.0695 1.79025 12.4349 1.79025C12.979 1.79025 13.4229 1.97585 13.7687 2.34704C14.1134 2.71823 14.2863 3.25542 14.2863 3.95861V6.83362C14.2863 6.90048 14.2644 6.95466 14.2217 6.99731C14.1779 7.04111 14.1237 7.06186 14.058 7.06186H13.6303C13.5635 7.06186 13.5093 7.03996 13.4667 6.99731C13.4229 6.95466 13.4021 6.89932 13.4021 6.83362V4.04737C13.4021 3.5171 13.2926 3.13669 13.0736 2.90844C12.8545 2.67904 12.5663 2.56491 12.2078 2.56491C11.8897 2.56491 11.6153 2.6825 11.3871 2.91766C11.1577 3.15283 11.0435 3.52978 11.0435 4.04737V6.83362C11.0435 6.90048 11.0216 6.95466 10.979 6.99731C10.9352 7.04111 10.881 7.06186 10.8153 7.06186H10.3772C10.3104 7.06186 10.2562 7.03996 10.2135 6.99731C10.1697 6.95466 10.149 6.89932 10.149 6.83362V4.04737C10.149 3.52402 10.0349 3.14591 9.80546 2.91305C9.57721 2.68134 9.29363 2.56491 8.95472 2.56491C8.63656 2.56491 8.3622 2.68134 8.13395 2.91305C7.90455 3.14476 7.79042 3.51941 7.79042 4.037V6.83246C7.79042 6.89932 7.76852 6.9535 7.72587 6.99616C7.68206 7.03996 7.62788 7.06071 7.56218 7.06071H7.12412C7.05726 7.06302 7.00308 7.04227 6.95928 6.99846Z" fill="#6F7071"/>
<path d="M16.2621 6.96388C15.9866 6.83131 15.7676 6.65032 15.605 6.42207C15.4425 6.19267 15.3618 5.93907 15.3618 5.66125C15.3618 5.2232 15.5405 4.86468 15.899 4.58687C16.2575 4.3079 16.7451 4.1223 17.3619 4.03008L18.8547 3.82143V3.53324C18.8547 2.84965 18.4605 2.50843 17.6708 2.50843C17.3653 2.50843 17.1198 2.56952 16.9342 2.69287C16.7486 2.81622 16.6126 2.96031 16.5261 3.12516C16.4996 3.19202 16.4719 3.23582 16.442 3.26003C16.412 3.28309 16.3705 3.29461 16.3175 3.29461H15.929C15.869 3.29461 15.8183 3.27271 15.7745 3.23006C15.7307 3.18741 15.7099 3.13553 15.7099 3.07559C15.7099 2.92342 15.7814 2.7459 15.9244 2.54301C16.0673 2.34127 16.2875 2.1649 16.5861 2.01619C16.8846 1.86749 17.2489 1.79256 17.68 1.79256C18.4224 1.79256 18.955 1.96547 19.2766 2.31015C19.5982 2.65483 19.7596 3.08596 19.7596 3.60356V6.83707C19.7596 6.90393 19.7377 6.95811 19.6951 7.00077C19.6513 7.04457 19.5971 7.06532 19.5314 7.06532H19.0933C19.0265 7.06532 18.9734 7.04342 18.9342 7.00077C18.8939 6.95811 18.8743 6.90278 18.8743 6.83707V6.39902C18.7279 6.61805 18.5158 6.80018 18.238 6.94659C17.959 7.09299 17.6016 7.16561 17.1636 7.16561C16.8385 7.16331 16.5376 7.09645 16.2621 6.96388ZM18.4362 6.00823C18.7152 5.7235 18.8535 5.3085 18.8535 4.76439V4.48543L17.6893 4.65488C17.212 4.72174 16.85 4.83356 16.6045 4.99264C16.359 5.15172 16.2368 5.35115 16.2368 5.58978C16.2368 5.86183 16.3474 6.07048 16.5699 6.21688C16.7924 6.36328 17.0552 6.43591 17.3607 6.43591C17.7999 6.43591 18.1584 6.29412 18.4362 6.00823Z" fill="#6F7071"/>
<path d="M24.0779 6.53044C23.6733 6.10968 23.4508 5.53444 23.4116 4.80474L23.4012 4.46698L23.4116 4.13844C23.4508 3.42257 23.6733 2.85195 24.0779 2.42658C24.4825 2.00121 25.0232 1.79025 25.6998 1.79025C26.4295 1.79025 26.9944 2.02196 27.3967 2.48652C27.7979 2.95109 27.9985 3.5805 27.9985 4.37707V4.55574C27.9985 4.6226 27.9766 4.67679 27.9339 4.71944C27.8901 4.76324 27.8359 4.78399 27.7702 4.78399H24.3177V4.87391C24.3373 5.30504 24.4698 5.67278 24.7154 5.97826C24.9609 6.28374 25.286 6.43591 25.6906 6.43591C26.0019 6.43591 26.2566 6.37481 26.4514 6.25147C26.6474 6.12927 26.795 6.00132 26.8941 5.86875C26.954 5.78921 27.0002 5.74079 27.0336 5.72465C27.067 5.70851 27.1235 5.69929 27.203 5.69929H27.6411C27.701 5.69929 27.7518 5.71543 27.7956 5.74886C27.8382 5.78229 27.8601 5.82494 27.8601 5.87797C27.8601 6.02437 27.7702 6.19959 27.5915 6.40594C27.4128 6.61113 27.1592 6.78866 26.8307 6.93852C26.5022 7.08838 26.1252 7.16215 25.701 7.16215C25.0232 7.16331 24.4825 6.95235 24.0779 6.53044ZM27.0935 4.10847V4.0785C27.0935 3.61393 26.9679 3.23582 26.7154 2.94417C26.463 2.65252 26.1252 2.50612 25.701 2.50612C25.2699 2.50612 24.9309 2.65252 24.6866 2.94417C24.441 3.23582 24.3188 3.61393 24.3188 4.0785V4.10847H27.0935Z" fill="#6F7071"/>
<path d="M29.2769 6.99846C29.2331 6.95581 29.2123 6.90048 29.2123 6.83477V2.11879C29.2123 2.05193 29.2342 1.99775 29.2769 1.9551C29.3195 1.91245 29.3749 1.89054 29.4406 1.89054H29.8579C29.9236 1.89054 29.9778 1.91245 30.017 1.9551C30.0573 1.9989 30.0769 2.05308 30.0769 2.11879V2.45655C30.4354 2.01274 30.9196 1.79025 31.5294 1.79025C32.2591 1.79025 32.7767 2.09574 33.081 2.70555C33.2401 2.42658 33.4672 2.20525 33.7623 2.03925C34.0574 1.87325 34.3871 1.79025 34.7525 1.79025C35.2966 1.79025 35.7404 1.97585 36.0863 2.34704C36.431 2.71823 36.6039 3.25542 36.6039 3.95861V6.83362C36.6039 6.90048 36.582 6.95466 36.5393 6.99731C36.4955 7.04111 36.4413 7.06186 36.3756 7.06186H35.9479C35.8811 7.06186 35.8269 7.03996 35.7843 6.99731C35.7404 6.95466 35.7197 6.89932 35.7197 6.83362V4.04737C35.7197 3.5171 35.6102 3.13669 35.3912 2.90844C35.1721 2.67904 34.8839 2.56491 34.5254 2.56491C34.2073 2.56491 33.9329 2.6825 33.7047 2.91766C33.4753 3.15283 33.3611 3.52978 33.3611 4.04737V6.83362C33.3611 6.90048 33.3392 6.95466 33.2966 6.99731C33.2528 7.04111 33.1986 7.06186 33.1329 7.06186H32.6948C32.628 7.06186 32.5738 7.03996 32.5311 6.99731C32.4873 6.95466 32.4666 6.89932 32.4666 6.83362V4.04737C32.4666 3.52402 32.3525 3.14591 32.1231 2.91305C31.8948 2.68134 31.6112 2.56491 31.2723 2.56491C30.9542 2.56491 30.6798 2.68134 30.4515 2.91305C30.2221 3.14476 30.108 3.51941 30.108 4.037V6.83246C30.108 6.89932 30.0861 6.9535 30.0435 6.99616C29.9997 7.03996 29.9455 7.06071 29.8798 7.06071H29.4417C29.3749 7.06302 29.3195 7.04227 29.2769 6.99846Z" fill="#6F7071"/>
<path d="M38.1221 8.89361C38.0783 8.85327 38.0575 8.79793 38.0575 8.72416V2.11764C38.0575 2.04502 38.0794 1.98853 38.1221 1.94818C38.1647 1.90899 38.2201 1.88824 38.2858 1.88824H38.7031C38.7757 1.88824 38.8322 1.90784 38.8725 1.94818C38.9117 1.98853 38.9325 2.04386 38.9325 2.11764V2.55569C39.3175 2.04502 39.8639 1.7891 40.574 1.7891C41.2703 1.7891 41.7925 2.00928 42.1406 2.45079C42.4888 2.8923 42.6732 3.4537 42.6928 4.13729C42.6997 4.20991 42.7032 4.32289 42.7032 4.47505C42.7032 4.62722 42.6997 4.74019 42.6928 4.81281C42.6732 5.48949 42.4888 6.04973 42.1406 6.4947C41.7925 6.93967 41.2703 7.161 40.574 7.161C39.8639 7.161 39.3267 6.90855 38.9624 6.40479V8.723C38.9624 8.78986 38.9405 8.84404 38.8979 8.8867C38.8541 8.92935 38.7999 8.95125 38.7342 8.95125H38.2869C38.2201 8.95356 38.1647 8.93396 38.1221 8.89361ZM41.4305 5.93907C41.6495 5.6405 41.7683 5.24971 41.789 4.7644C41.7959 4.69869 41.7994 4.60186 41.7994 4.4762C41.7994 3.2024 41.3279 2.56607 40.3861 2.56607C39.9215 2.56607 39.5723 2.72054 39.3359 3.02833C39.1008 3.33727 38.9763 3.70039 38.9624 4.11769C38.9555 4.19032 38.9521 4.32058 38.9521 4.50618C38.9521 4.69177 38.9555 4.82088 38.9624 4.89466C38.9763 5.29928 39.1031 5.64972 39.3452 5.94483C39.5872 6.23994 39.9342 6.3875 40.385 6.3875C40.8634 6.38634 41.2115 6.23763 41.4305 5.93907Z" fill="#6F7071"/>
<path d="M44.0219 6.99846C43.9781 6.95581 43.9574 6.90047 43.9574 6.83477V2.12801C43.9574 2.0623 43.9793 2.00582 44.0219 1.95855C44.0646 1.91244 44.1199 1.88939 44.1856 1.88939H44.6029C44.6756 1.88939 44.7344 1.91129 44.777 1.95394C44.8197 1.99775 44.8416 2.05539 44.8416 2.12801V2.56606C45.1136 2.11533 45.5747 1.88939 46.2249 1.88939H46.6134C46.686 1.88939 46.7425 1.90899 46.7828 1.94933C46.8232 1.98968 46.8428 2.04501 46.8428 2.11879V2.48652C46.8428 2.55338 46.8232 2.60756 46.7828 2.65022C46.7436 2.69402 46.6871 2.71477 46.6134 2.71477H46.0462C45.6808 2.71477 45.3949 2.82083 45.1851 3.03294C44.9764 3.24504 44.8715 3.53439 44.8715 3.89866V6.83361C44.8715 6.90047 44.8485 6.95465 44.8024 6.99731C44.7563 7.04111 44.6998 7.06186 44.6329 7.06186H44.1856C44.1199 7.06301 44.0657 7.04226 44.0219 6.99846Z" fill="#6F7071"/>
<path d="M48.127 6.53044C47.7223 6.10968 47.4998 5.53444 47.4607 4.80474L47.4503 4.46698L47.4607 4.13844C47.4998 3.42257 47.7223 2.85195 48.127 2.42658C48.5316 2.00121 49.0722 1.79025 49.7489 1.79025C50.4786 1.79025 51.0435 2.02196 51.4458 2.48652C51.8469 2.95109 52.0475 3.5805 52.0475 4.37707V4.55574C52.0475 4.6226 52.0256 4.67679 51.983 4.71944C51.9392 4.76324 51.885 4.78399 51.8193 4.78399H48.3667V4.87391C48.3863 5.30504 48.5189 5.67278 48.7644 5.97826C49.01 6.28374 49.3351 6.43591 49.7397 6.43591C50.0509 6.43591 50.3057 6.37481 50.5005 6.25147C50.6965 6.12927 50.844 6.00132 50.9432 5.86875C51.0031 5.78921 51.0492 5.74079 51.0827 5.72465C51.1161 5.70851 51.1726 5.69929 51.2521 5.69929H51.6902C51.7501 5.69929 51.8008 5.71543 51.8446 5.74886C51.8873 5.78229 51.9092 5.82494 51.9092 5.87797C51.9092 6.02437 51.8193 6.19959 51.6406 6.40594C51.4619 6.61113 51.2083 6.78866 50.8798 6.93852C50.5512 7.08838 50.1743 7.16215 49.7501 7.16215C49.0722 7.16331 48.5316 6.95235 48.127 6.53044ZM51.1414 4.10847V4.0785C51.1414 3.61393 51.0158 3.23582 50.7633 2.94417C50.5109 2.65252 50.1731 2.50612 49.7489 2.50612C49.3178 2.50612 48.9788 2.65252 48.7345 2.94417C48.4889 3.23582 48.3667 3.61393 48.3667 4.0785V4.10847H51.1414Z" fill="#6F7071"/>
<path d="M53.8724 6.93852C53.5576 6.78981 53.3236 6.61805 53.1703 6.42554C53.0182 6.23302 52.9421 6.07394 52.9421 5.94829C52.9421 5.88258 52.9651 5.83071 53.0112 5.79382C53.0573 5.75693 53.1069 5.73964 53.1599 5.73964H53.5772C53.6176 5.73964 53.6487 5.74655 53.6718 5.75924C53.6948 5.77307 53.726 5.80304 53.7663 5.84915C53.9185 6.03475 54.0902 6.18115 54.2793 6.2872C54.4683 6.39326 54.7219 6.44629 55.0401 6.44629C55.3986 6.44629 55.6857 6.38058 55.9012 6.24686C56.1168 6.11429 56.2252 5.92178 56.2252 5.66932C56.2252 5.50332 56.179 5.37075 56.0857 5.27161C55.9923 5.17248 55.839 5.08256 55.6234 5.00302C55.4078 4.92348 55.0874 4.83702 54.6632 4.7448C54.0856 4.61915 53.6787 4.43586 53.4389 4.19724C53.2003 3.95861 53.0804 3.64967 53.0804 3.27156C53.0804 3.02602 53.153 2.78855 53.2994 2.5603C53.4458 2.33205 53.6626 2.14531 53.9507 2.00352C54.2389 1.86057 54.5825 1.7891 54.9802 1.7891C55.3986 1.7891 55.7548 1.85827 56.0499 1.99775C56.345 2.13724 56.5675 2.29978 56.7162 2.48537C56.8649 2.67097 56.9399 2.82659 56.9399 2.9534C56.9399 3.01334 56.918 3.06291 56.8753 3.1021C56.8315 3.1413 56.7808 3.16205 56.7208 3.16205H56.3427C56.2494 3.16205 56.1837 3.12516 56.1433 3.05253C56.0303 2.92688 55.9358 2.8289 55.8597 2.75858C55.7836 2.68941 55.6718 2.62947 55.5266 2.5799C55.3802 2.53033 55.198 2.50497 54.979 2.50497C54.6539 2.50497 54.4049 2.57298 54.2332 2.70901C54.0603 2.84504 53.9749 3.02602 53.9749 3.25081C53.9749 3.3903 54.0118 3.50788 54.0845 3.60356C54.1571 3.69924 54.2966 3.78915 54.5018 3.87215C54.707 3.95515 55.0124 4.0393 55.4171 4.12576C56.0476 4.25833 56.4938 4.44738 56.7554 4.69292C57.0171 4.93846 57.1485 5.25317 57.1485 5.6382C57.1485 5.92293 57.0667 6.1823 56.9053 6.41401C56.7427 6.64572 56.5007 6.82901 56.179 6.96157C55.8574 7.09414 55.4736 7.161 55.0297 7.161C54.5744 7.16331 54.1871 7.08838 53.8724 6.93852Z" fill="#6F7071"/>
<path d="M58.8477 6.96388C58.5722 6.83131 58.3532 6.65032 58.1906 6.42207C58.0281 6.19267 57.9474 5.93907 57.9474 5.66125C57.9474 5.2232 58.1261 4.86468 58.4846 4.58687C58.8431 4.3079 59.3307 4.1223 59.9474 4.03008L61.4403 3.82143V3.53324C61.4403 2.84965 61.046 2.50843 60.2564 2.50843C59.9509 2.50843 59.7054 2.56952 59.5198 2.69287C59.3342 2.81622 59.1981 2.96031 59.1117 3.12516C59.0852 3.19202 59.0575 3.23582 59.0275 3.26003C58.9976 3.28309 58.9561 3.29461 58.903 3.29461H58.5146C58.4546 3.29461 58.4039 3.27271 58.3601 3.23006C58.3163 3.18741 58.2955 3.13553 58.2955 3.07559C58.2955 2.92342 58.367 2.7459 58.5099 2.54301C58.6529 2.34127 58.8731 2.1649 59.1716 2.01619C59.4702 1.86749 59.8345 1.79256 60.2656 1.79256C61.008 1.79256 61.5406 1.96547 61.8622 2.31015C62.1838 2.65483 62.3452 3.08596 62.3452 3.60356V6.83707C62.3452 6.90393 62.3233 6.95811 62.2806 7.00077C62.2368 7.04457 62.1827 7.06532 62.117 7.06532H61.6789C61.612 7.06532 61.559 7.04342 61.5198 7.00077C61.4795 6.95811 61.4599 6.90278 61.4599 6.83707V6.39902C61.3135 6.61805 61.1014 6.80018 60.8236 6.94659C60.5446 7.09299 60.1872 7.16561 59.7492 7.16561C59.4229 7.16331 59.1232 7.09645 58.8477 6.96388ZM61.0218 6.00823C61.3008 5.7235 61.4391 5.3085 61.4391 4.76439V4.48543L60.2748 4.65488C59.7976 4.72174 59.4356 4.83356 59.1901 4.99264C58.9445 5.15172 58.8223 5.35115 58.8223 5.58978C58.8223 5.86183 58.933 6.07048 59.1555 6.21688C59.378 6.36328 59.6408 6.43591 59.9463 6.43591C60.3843 6.43591 60.7429 6.29412 61.0218 6.00823Z" fill="#6F7071"/>
<path d="M66.5586 6.48663C66.2104 6.0359 66.0225 5.46528 65.996 4.77477L65.9856 4.4762L65.996 4.17763C66.0225 3.49404 66.2116 2.92573 66.5632 2.47154C66.9148 2.01734 67.4358 1.79025 68.1252 1.79025C68.8145 1.79025 69.3517 2.03579 69.7368 2.52687V0.228248C69.7368 0.161387 69.7587 0.107207 69.8013 0.0645548C69.844 0.0219023 69.8993 0 69.965 0H70.4123C70.478 0 70.5333 0.0219023 70.576 0.0645548C70.6186 0.10836 70.6405 0.16254 70.6405 0.228248V6.83476C70.6405 6.90163 70.6186 6.95581 70.576 6.99846C70.5322 7.04226 70.478 7.06301 70.4123 7.06301H69.9846C69.9177 7.06301 69.8647 7.04111 69.8255 6.99846C69.7852 6.95581 69.7656 6.90047 69.7656 6.83476V6.40709C69.3875 6.91085 68.8399 7.1633 68.124 7.1633C67.4289 7.1633 66.9067 6.93736 66.5586 6.48663ZM69.3598 5.92408C69.5915 5.61514 69.7183 5.24971 69.7379 4.82434C69.7448 4.75171 69.7483 4.62491 69.7483 4.44623C69.7483 4.26063 69.7448 4.13152 69.7379 4.05775C69.7241 3.65312 69.5973 3.30383 69.3552 3.00757C69.1131 2.71246 68.7661 2.56491 68.3154 2.56491C67.8381 2.56491 67.49 2.71362 67.271 3.01218C67.052 3.31075 66.9332 3.70269 66.9125 4.18685L66.9021 4.47505C66.9021 5.74886 67.3724 6.38519 68.3154 6.38519C68.7788 6.38634 69.1269 6.23187 69.3598 5.92408Z" fill="#6F7071"/>
<path d="M72.5587 6.54542C72.1645 6.13388 71.9535 5.58747 71.927 4.90388L71.9166 4.4762L71.927 4.04853C71.9535 3.36493 72.1668 2.81852 72.5691 2.40698C72.9703 1.99545 73.5294 1.79025 74.2452 1.79025C74.9611 1.79025 75.5202 1.99545 75.9214 2.40698C76.3225 2.81852 76.5369 3.36609 76.5634 4.04853C76.5761 4.19493 76.583 4.33672 76.583 4.4762C76.583 4.61569 76.5761 4.75863 76.5634 4.90388C76.5369 5.58747 76.326 6.13388 75.9317 6.54542C75.5375 6.95696 74.9749 7.16215 74.2452 7.16215C73.5155 7.16331 72.953 6.95696 72.5587 6.54542ZM75.2551 6.014C75.5041 5.7454 75.6378 5.35922 75.6585 4.85546C75.6654 4.7886 75.6689 4.66295 75.6689 4.47736C75.6689 4.29176 75.6654 4.16611 75.6585 4.09925C75.6389 3.59549 75.5041 3.20931 75.2551 2.93956C75.0061 2.67097 74.6694 2.53609 74.2452 2.53609C73.821 2.53609 73.4844 2.67097 73.2354 2.93956C72.9864 3.20816 72.8527 3.59434 72.8319 4.09925L72.8216 4.47736L72.8319 4.85546C72.8515 5.35922 72.9864 5.7454 73.2354 6.014C73.4844 6.28259 73.821 6.41747 74.2452 6.41747C74.6694 6.41631 75.0061 6.28259 75.2551 6.014Z" fill="#6F7071"/>
<path d="M81.0604 8.97315C80.7284 8.78756 80.4944 8.57545 80.3595 8.33682C80.2235 8.0982 80.1555 7.89186 80.1555 7.7201C80.1555 7.66015 80.1785 7.60943 80.2246 7.56562C80.2707 7.52297 80.3238 7.50107 80.3837 7.50107H80.8218C80.8817 7.50107 80.9313 7.51605 80.9705 7.54603C81.0108 7.576 81.0431 7.63018 81.0696 7.70972C81.2552 8.23999 81.6771 8.50628 82.3331 8.50628C82.831 8.50628 83.1988 8.40023 83.4374 8.18812C83.676 7.97601 83.7959 7.60136 83.7959 7.06417V6.37712C83.4109 6.8682 82.8737 7.11374 82.1843 7.11374C81.4812 7.11374 80.9555 6.8878 80.6074 6.43706C80.2592 5.98633 80.0748 5.41571 80.0552 4.7252L80.0448 4.44623L80.0552 4.17764C80.0748 3.49404 80.2592 2.92573 80.6074 2.47154C80.9555 2.01735 81.4812 1.79025 82.1843 1.79025C82.8806 1.79025 83.4247 2.04617 83.8167 2.55684V2.12917C83.8167 2.06346 83.8386 2.00697 83.8812 1.95971C83.9239 1.9136 83.9792 1.89054 84.0449 1.89054H84.4726C84.5383 1.89054 84.5936 1.9136 84.6363 1.95971C84.6789 2.00582 84.7008 2.06231 84.7008 2.12917V6.95466C84.7008 8.48669 83.9285 9.25328 82.3826 9.25328C81.8327 9.25212 81.3924 9.15875 81.0604 8.97315ZM83.4132 5.88373C83.6484 5.58171 83.7763 5.21859 83.7959 4.79437C83.8028 4.73442 83.8063 4.61915 83.8063 4.44623C83.8063 4.28023 83.8028 4.16726 83.7959 4.10847C83.7763 3.68425 83.6484 3.32113 83.4132 3.0191C83.178 2.71708 82.8276 2.56607 82.363 2.56607C81.8858 2.56607 81.5388 2.71708 81.3232 3.0191C81.1077 3.32113 80.9901 3.71077 80.9705 4.18801L80.9601 4.44623L80.9705 4.71483C80.9901 5.19207 81.1077 5.58171 81.3232 5.88373C81.5388 6.18576 81.8858 6.33677 82.363 6.33677C82.8276 6.33677 83.178 6.18576 83.4132 5.88373Z" fill="#6F7071"/>
<path d="M86.2686 6.99846C86.2248 6.95581 86.2041 6.90047 86.2041 6.83477V2.12801C86.2041 2.0623 86.226 2.00582 86.2686 1.95855C86.3113 1.91244 86.3666 1.88939 86.4323 1.88939H86.8496C86.9222 1.88939 86.981 1.91129 87.0237 1.95394C87.0663 1.99775 87.0882 2.05539 87.0882 2.12801V2.56606C87.3603 2.11533 87.8214 1.88939 88.4715 1.88939H88.86C88.9327 1.88939 88.9891 1.90899 89.0295 1.94933C89.0698 1.98968 89.0894 2.04501 89.0894 2.11879V2.48652C89.0894 2.55338 89.0698 2.60756 89.0295 2.65022C88.9903 2.69402 88.9338 2.71477 88.86 2.71477H88.2929C87.9274 2.71477 87.6416 2.82083 87.4318 3.03294C87.2231 3.24504 87.1182 3.53439 87.1182 3.89866V6.83361C87.1182 6.90047 87.0951 6.95465 87.049 6.99731C87.0029 7.04111 86.9464 7.06186 86.8796 7.06186H86.4323C86.3666 7.06301 86.3124 7.04226 86.2686 6.99846Z" fill="#6F7071"/>
<path d="M90.4128 6.55119C90.0681 6.14311 89.8952 5.6013 89.8952 4.92463V2.11879C89.8952 2.05193 89.9171 1.99775 89.9598 1.9551C90.0024 1.91244 90.0578 1.89054 90.1235 1.89054H90.5811C90.648 1.89054 90.7022 1.91244 90.7448 1.9551C90.7875 1.9989 90.8094 2.05308 90.8094 2.11879V4.87506C90.8094 5.88373 91.2474 6.38749 92.1224 6.38749C92.5466 6.38749 92.8832 6.25262 93.1322 5.98402C93.3812 5.71543 93.5057 5.34539 93.5057 4.87506V2.11879C93.5057 2.05193 93.5276 1.99775 93.5702 1.9551C93.6129 1.91244 93.6682 1.89054 93.7339 1.89054H94.1916C94.2584 1.89054 94.3126 1.91244 94.3553 1.9551C94.3979 1.9989 94.4198 2.05308 94.4198 2.11879V6.83477C94.4198 6.90163 94.3979 6.95581 94.3553 6.99846C94.3115 7.04226 94.2573 7.06301 94.1916 7.06301H93.7639C93.697 7.06301 93.6429 7.04111 93.6002 6.99846C93.5564 6.95581 93.5357 6.90047 93.5357 6.83477V6.38749C93.3431 6.64571 93.1184 6.84053 92.859 6.96964C92.5996 7.09875 92.2722 7.16331 91.8745 7.16331C91.2451 7.16331 90.7575 6.95927 90.4128 6.55119Z" fill="#6F7071"/>
<path d="M95.9899 8.89361C95.9461 8.85327 95.9253 8.79793 95.9253 8.72416V2.11764C95.9253 2.04502 95.9472 1.98853 95.9899 1.94818C96.0326 1.90899 96.0879 1.88824 96.1536 1.88824H96.5709C96.6435 1.88824 96.7 1.90784 96.7404 1.94818C96.7795 1.98853 96.8003 2.04386 96.8003 2.11764V2.55569C97.1853 2.04502 97.7317 1.7891 98.4418 1.7891C99.1381 1.7891 99.6603 2.00928 100.008 2.45079C100.357 2.8923 100.541 3.4537 100.561 4.13729C100.568 4.20991 100.571 4.32289 100.571 4.47505C100.571 4.62722 100.568 4.74019 100.561 4.81281C100.541 5.48949 100.357 6.04973 100.008 6.4947C99.6603 6.93967 99.1381 7.161 98.4418 7.161C97.7317 7.161 97.1945 6.90855 96.8303 6.40479V8.723C96.8303 8.78986 96.8084 8.84404 96.7657 8.8867C96.7219 8.92935 96.6677 8.95125 96.602 8.95125H96.1547C96.0879 8.95356 96.0326 8.93396 95.9899 8.89361ZM99.2983 5.93907C99.5174 5.6405 99.6361 5.24971 99.6569 4.7644C99.6638 4.69869 99.6672 4.60186 99.6672 4.4762C99.6672 3.2024 99.1957 2.56607 98.2539 2.56607C97.7894 2.56607 97.4401 2.72054 97.2038 3.02833C96.9686 3.33727 96.8441 3.70039 96.8303 4.11769C96.8234 4.19032 96.8199 4.32058 96.8199 4.50618C96.8199 4.69177 96.8234 4.82088 96.8303 4.89466C96.8441 5.29928 96.9709 5.64972 97.213 5.94483C97.4551 6.23994 97.8021 6.3875 98.2528 6.3875C98.7312 6.38634 99.0793 6.23763 99.2983 5.93907Z" fill="#6F7071"/>
<path d="M102.238 6.54542C101.844 6.13388 101.633 5.58747 101.606 4.90388L101.596 4.4762L101.606 4.04853C101.633 3.36493 101.846 2.81852 102.248 2.40698C102.649 1.99545 103.209 1.79025 103.924 1.79025C104.64 1.79025 105.199 1.99545 105.601 2.40698C106.002 2.81852 106.216 3.36609 106.243 4.04853C106.255 4.19493 106.262 4.33672 106.262 4.4762C106.262 4.61569 106.255 4.75863 106.243 4.90388C106.216 5.58747 106.005 6.13388 105.611 6.54542C105.217 6.95696 104.654 7.16215 103.924 7.16215C103.195 7.16331 102.633 6.95696 102.238 6.54542ZM104.935 6.014C105.184 5.7454 105.318 5.35922 105.339 4.85546C105.346 4.7886 105.349 4.66295 105.349 4.47736C105.349 4.29176 105.346 4.16611 105.339 4.09925C105.319 3.59549 105.184 3.20931 104.935 2.93956C104.686 2.67097 104.35 2.53609 103.926 2.53609C103.501 2.53609 103.165 2.67097 102.916 2.93956C102.667 3.20816 102.533 3.59434 102.512 4.09925L102.502 4.47736L102.512 4.85546C102.532 5.35922 102.667 5.7454 102.916 6.014C103.165 6.28259 103.501 6.41747 103.926 6.41747C104.35 6.41631 104.686 6.28259 104.935 6.014Z" fill="#6F7071"/>
</svg>
