<svg width="282" height="51" viewBox="0 0 282 51" fill="none" xmlns="http://www.w3.org/2000/svg">
<path d="M0 20.2059C0 19.3746 0.66391 18.7107 1.51833 18.7107C2.34966 18.7107 3.01357 19.3746 3.01357 20.2059V25.9675H11.1999V20.2059C11.1999 19.3746 11.8638 18.7107 12.6951 18.7107C13.5553 18.7107 14.2134 19.3746 14.2134 20.2059V34.6214C14.2134 35.4528 13.5495 36.1167 12.6951 36.1167C11.8638 36.1167 11.1999 35.4528 11.1999 34.6214V28.7617H3.01357V34.6214C3.01357 35.4528 2.34966 36.1167 1.51833 36.1167C0.658137 36.1167 0 35.4528 0 34.6214V20.2059Z" fill="#8AB99D"/>
<path d="M18.6299 34.4771V20.356C18.6299 19.4958 19.2938 18.8377 20.1482 18.8377H30.1242C30.8574 18.8377 31.4693 19.4497 31.4693 20.1886C31.4693 20.9507 30.8574 21.5338 30.1242 21.5338H21.6435V25.9964H29.0215C29.7547 25.9964 30.3724 26.6083 30.3724 27.3704C30.3724 28.1036 29.7605 28.6924 29.0215 28.6924H21.6435V33.2994H30.2512C30.9844 33.2994 31.6021 33.9113 31.6021 34.6445C31.6021 35.4066 30.9902 35.9954 30.2512 35.9954H20.1482C19.2938 35.9954 18.6299 35.3315 18.6299 34.4771Z" fill="#8AB99D"/>
<path d="M34.073 34.0326L40.4465 19.8134C40.7871 19.0513 41.4049 18.5895 42.2593 18.5895H42.4036C43.2638 18.5895 43.8469 19.0571 44.1933 19.8134L50.5668 34.0326C50.6881 34.252 50.74 34.4714 50.74 34.6676C50.74 35.4759 50.1281 36.1109 49.3198 36.1109C48.6097 36.1109 48.119 35.6953 47.8477 35.0544L46.4506 31.8446H38.1142L36.6709 35.1526C36.4284 35.7645 35.9089 36.1109 35.2738 36.1109C34.4887 36.1109 33.8767 35.499 33.8767 34.7138C33.8767 34.5002 33.9518 34.2808 34.073 34.0326ZM45.3017 29.1774L42.2882 22.2381L39.2746 29.1774H45.3017Z" fill="#8AB99D"/>
<path d="M54.0018 20.2059C54.0018 19.3746 54.6658 18.7107 55.5202 18.7107C56.3515 18.7107 57.0154 19.3746 57.0154 20.2059V33.2474H64.786C65.5481 33.2474 66.1601 33.8594 66.1601 34.6214C66.1601 35.3835 65.5481 35.9954 64.786 35.9954H55.5202C54.66 35.9954 54.0018 35.3315 54.0018 34.4771V20.2059Z" fill="#8AB99D"/>
<path d="M70.9402 21.6261H66.772C65.9869 21.6261 65.3749 20.9911 65.3749 20.229C65.3749 19.467 65.9869 18.8319 66.772 18.8319H78.1739C78.936 18.8319 79.5479 19.467 79.5479 20.229C79.5479 20.9911 78.936 21.6261 78.1739 21.6261H73.9826V34.6214C73.9826 35.4528 73.2956 36.1167 72.4643 36.1167C71.633 36.1167 70.946 35.4528 70.946 34.6214V21.6261H70.9402Z" fill="#8AB99D"/>
<path d="M82.6077 20.2059C82.6077 19.3746 83.2716 18.7107 84.126 18.7107C84.9573 18.7107 85.6213 19.3746 85.6213 20.2059V25.9675H93.8076V20.2059C93.8076 19.3746 94.4715 18.7107 95.3028 18.7107C96.163 18.7107 96.8211 19.3746 96.8211 20.2059V34.6214C96.8211 35.4528 96.1572 36.1167 95.3028 36.1167C94.4715 36.1167 93.8076 35.4528 93.8076 34.6214V28.7617H85.6213V34.6214C85.6213 35.4528 84.9573 36.1167 84.126 36.1167C83.2658 36.1167 82.6077 35.4528 82.6077 34.6214V20.2059Z" fill="#8AB99D"/>
<path d="M159.662 34.0845C159.321 33.8421 159.073 33.4206 159.073 32.9299C159.073 32.1448 159.708 31.5328 160.493 31.5328C160.909 31.5328 161.18 31.6541 161.376 31.8042C162.796 32.9299 164.321 33.5707 166.18 33.5707C168.038 33.5707 169.222 32.6875 169.222 31.4116V31.3654C169.222 30.1415 168.535 29.4776 165.348 28.7444C161.694 27.8611 159.639 26.7815 159.639 23.6179V23.5717C159.639 20.6274 162.092 18.5952 165.498 18.5952C167.657 18.5952 169.395 19.161 170.942 20.1886C171.283 20.3849 171.606 20.8006 171.606 21.3894C171.606 22.1746 170.971 22.7865 170.186 22.7865C169.892 22.7865 169.649 22.7115 169.401 22.5672C168.079 21.707 166.803 21.2682 165.452 21.2682C163.686 21.2682 162.658 22.1746 162.658 23.3003V23.3465C162.658 24.6686 163.443 25.2574 166.751 26.0426C170.382 26.9259 172.241 28.2248 172.241 31.071V31.1172C172.241 34.327 169.718 36.2437 166.11 36.2437C163.778 36.2379 161.573 35.5047 159.662 34.0845Z" fill="#8AB99D"/>
<path d="M175.786 34.4771V20.3561C175.786 19.4959 176.45 18.8377 177.304 18.8377H187.28C188.013 18.8377 188.625 19.4497 188.625 20.1886C188.625 20.9507 188.013 21.5338 187.28 21.5338H178.8V25.9964H186.178C186.911 25.9964 187.529 26.6084 187.529 27.3704C187.529 28.1036 186.917 28.6925 186.178 28.6925H178.8V33.2994H187.407C188.14 33.2994 188.758 33.9114 188.758 34.6445C188.758 35.4066 188.146 35.9955 187.407 35.9955H177.304C176.45 35.9955 175.786 35.3316 175.786 34.4771Z" fill="#8AB99D"/>
<path d="M192.211 20.3561C192.211 19.4959 192.874 18.8377 193.729 18.8377H199.86C202.019 18.8377 203.711 19.4728 204.813 20.5523C205.72 21.4818 206.233 22.7577 206.233 24.2529V24.2991C206.233 27.0471 204.64 28.7098 202.337 29.4256L205.622 33.5707C205.916 33.9402 206.112 34.2577 206.112 34.7254C206.112 35.5567 205.402 36.1225 204.669 36.1225C203.982 36.1225 203.543 35.8049 203.197 35.3373L199.029 30.0203H195.23V34.6272C195.23 35.4586 194.566 36.1225 193.735 36.1225C192.874 36.1225 192.216 35.4586 192.216 34.6272V20.3561H192.211ZM199.641 27.3415C201.8 27.3415 203.174 26.2158 203.174 24.4723V24.4261C203.174 22.5903 201.852 21.58 199.617 21.58H195.23V27.3415H199.641Z" fill="#8AB99D"/>
<path d="M214.593 35.014L208.589 20.893C208.491 20.6736 208.416 20.4542 208.416 20.1829C208.416 19.3746 209.08 18.7107 209.934 18.7107C210.719 18.7107 211.233 19.1495 211.475 19.7903L216.429 32.1679L221.457 19.6921C221.653 19.1783 222.19 18.7107 222.9 18.7107C223.732 18.7107 224.396 19.3458 224.396 20.154C224.396 20.3734 224.321 20.6216 224.251 20.789L218.218 35.0082C217.901 35.7703 217.335 36.2322 216.475 36.2322H216.302C215.476 36.2379 214.91 35.7761 214.593 35.014Z" fill="#8AB99D"/>
<path d="M227.75 20.2059C227.75 19.3746 228.414 18.7107 229.268 18.7107C230.1 18.7107 230.763 19.3746 230.763 20.2059V34.6215C230.763 35.4528 230.1 36.1167 229.268 36.1167C228.408 36.1167 227.75 35.4528 227.75 34.6215V20.2059Z" fill="#8AB99D"/>
<path d="M234.591 27.4628V27.4166C234.591 22.5383 238.245 18.5433 243.441 18.5433C246.091 18.5433 247.829 19.3285 249.324 20.4773C249.642 20.7198 249.913 21.1412 249.913 21.6781C249.913 22.5094 249.249 23.1503 248.418 23.1503C248.002 23.1503 247.708 23.0059 247.511 22.8558C246.334 21.8975 245.058 21.3144 243.418 21.3144C240.156 21.3144 237.755 24.0105 237.755 27.3704V27.4166C237.755 30.7766 240.133 33.4957 243.418 33.4957C245.231 33.4957 246.461 32.9068 247.708 31.8504C247.927 31.6541 248.245 31.5098 248.614 31.5098C249.376 31.5098 250.034 32.1448 250.034 32.9068C250.034 33.3745 249.815 33.7382 249.543 33.9864C247.927 35.4066 246.085 36.2899 243.314 36.2899C238.315 36.2899 234.591 32.393 234.591 27.4628Z" fill="#8AB99D"/>
<path d="M253.44 34.4771V20.3561C253.44 19.4959 254.104 18.8377 254.959 18.8377H264.935C265.668 18.8377 266.28 19.4497 266.28 20.1886C266.28 20.9507 265.668 21.5338 264.935 21.5338H256.454V25.9964H263.832C264.565 25.9964 265.183 26.6084 265.183 27.3704C265.183 28.1036 264.571 28.6925 263.832 28.6925H256.454V33.2994H265.062C265.795 33.2994 266.413 33.9114 266.413 34.6445C266.413 35.4066 265.801 35.9955 265.062 35.9955H254.959C254.104 35.9955 253.44 35.3316 253.44 34.4771Z" fill="#8AB99D"/>
<path d="M269.42 34.0845C269.08 33.8421 268.831 33.4206 268.831 32.9299C268.831 32.1448 269.467 31.5328 270.252 31.5328C270.667 31.5328 270.939 31.6541 271.135 31.8042C272.555 32.9299 274.079 33.5707 275.938 33.5707C277.797 33.5707 278.981 32.6875 278.981 31.4116V31.3654C278.981 30.1415 278.294 29.4776 275.107 28.7444C271.452 27.8611 269.397 26.7815 269.397 23.6179V23.5717C269.397 20.6274 271.851 18.5952 275.257 18.5952C277.416 18.5952 279.154 19.161 280.701 20.1886C281.042 20.3849 281.365 20.8006 281.365 21.3894C281.365 22.1746 280.73 22.7865 279.945 22.7865C279.65 22.7865 279.408 22.7115 279.16 22.5672C277.838 21.707 276.562 21.2682 275.211 21.2682C273.444 21.2682 272.417 22.1746 272.417 23.3003V23.3465C272.417 24.6686 273.202 25.2574 276.51 26.0426C280.141 26.9259 282 28.2248 282 31.071V31.1172C282 34.327 279.477 36.2437 275.869 36.2437C273.542 36.2379 271.331 35.5047 269.42 34.0845Z" fill="#8AB99D"/>
<path d="M135.461 30.7592C135.212 29.57 134.837 28.4327 134.341 27.3589C133.573 25.6904 132.516 24.1779 131.241 22.8847C131.217 22.8616 131.194 22.8327 131.165 22.8096C131.137 22.7865 131.114 22.7577 131.09 22.7346C129.809 21.4703 128.314 20.4253 126.657 19.6575C125.566 19.1495 124.405 18.7627 123.199 18.5144C122.171 18.3066 121.109 18.1911 120.018 18.1911H110.63C108.737 18.1911 107.022 18.959 105.781 20.2002C104.54 21.4414 103.772 23.156 103.772 25.0496C103.772 26.5333 104.245 27.9015 105.042 29.0273C105.642 29.8702 106.428 30.5687 107.334 31.0652C107.859 31.3539 108.425 31.579 109.026 31.7176C109.539 31.8446 110.082 31.9081 110.636 31.9081H119.637C120.976 31.9081 122.061 32.9934 122.061 34.3328V43.3042C122.061 43.8238 122.119 44.3376 122.234 44.8226C122.379 45.4634 122.61 46.0696 122.921 46.6238C123.233 47.1838 123.62 47.7034 124.07 48.1537C124.347 48.4308 124.648 48.6848 124.971 48.9099C126.091 49.6951 127.453 50.1627 128.926 50.1627C132.713 50.1627 135.784 47.0914 135.784 43.3042V33.9518C135.784 32.8607 135.674 31.7926 135.461 30.7592ZM128.926 46.0003C128.285 46.0003 127.702 45.7405 127.286 45.3191C127.101 45.1343 126.945 44.9149 126.83 44.6782C126.686 44.378 126.605 44.0374 126.605 43.6795V33.5361L126.195 31.9139C125.56 29.9452 124.018 28.3807 122.061 27.7168C121.397 27.4916 120.693 27.3704 119.954 27.3704H115.209H110.567C110.128 27.3704 109.724 27.2492 109.378 27.0413C108.702 26.6372 108.252 25.8983 108.252 25.0496C108.252 24.4088 108.512 23.8257 108.933 23.41C109.355 22.9886 109.932 22.7288 110.573 22.7288H118.286H119.891C120.635 22.7288 121.363 22.8212 122.061 22.9597C123.735 23.283 125.283 23.9758 126.605 24.9515C127.534 25.6385 128.36 26.4583 129.041 27.3935C129.751 28.3576 130.305 29.4372 130.686 30.5976C130.969 31.4982 131.033 32.7856 131.033 32.7856L131.241 43.6795C131.241 44.9611 130.207 46.0003 128.926 46.0003Z" fill="#244967"/>
<path d="M137.793 18.1911H147.151C147.544 18.1911 147.931 18.2258 148.3 18.2893C151.539 18.8377 154.004 21.655 154.004 25.0496C154.004 26.9432 153.236 28.6578 151.995 29.899C150.754 31.1403 149.039 31.9081 147.145 31.9081H138.197H137.839C137.845 31.8042 137.845 31.7002 137.845 31.5963C137.845 30.0087 137.441 28.5481 136.76 27.3646H137.302H147.174C148.462 27.3646 149.512 26.3197 149.512 25.0265C149.512 23.7391 148.468 22.6884 147.174 22.6884L141.938 22.7346H138.001C137.73 22.7346 137.464 22.7173 137.198 22.6884C136.419 22.596 135.68 22.3709 135.005 22.0418C133.677 21.3837 132.597 20.3041 131.939 18.982C131.489 18.0757 131.235 17.0538 131.235 15.9742V15.2642V13.4398V6.82961C131.235 5.5422 130.19 4.49149 128.897 4.49149C127.609 4.49149 126.559 5.53643 126.559 6.82961V16.8056V17.3829C125.335 16.6035 123.77 16.1417 122.067 16.1417V15.8646V6.85848C122.067 3.0713 125.138 0 128.925 0C130.819 0 132.534 0.767826 133.775 2.00905C135.016 3.25027 135.784 4.96489 135.784 6.85848V7.04322V15.8934V16.1879C135.784 17.2905 136.685 18.1911 137.793 18.1911Z" fill="#8AB99D"/>
</svg>
