<svg width="51" height="51" viewBox="0 0 51 51" fill="none" xmlns="http://www.w3.org/2000/svg">
<path d="M32.4607 30.7592C32.2124 29.57 31.8372 28.4327 31.3407 27.3589C30.5729 25.6904 29.5164 24.1779 28.2405 22.8847C28.2174 22.8616 28.1943 22.8327 28.1655 22.8096C28.1366 22.7865 28.1135 22.7577 28.0904 22.7346C26.8088 21.4703 25.3136 20.4253 23.6567 19.6575C22.5655 19.1495 21.4051 18.7627 20.1986 18.5144C19.1709 18.3066 18.1087 18.1911 17.0176 18.1911H7.63046C5.73687 18.1911 4.02225 18.959 2.78103 20.2002C1.53981 21.4414 0.771984 23.156 0.771984 25.0496C0.771984 26.5333 1.24538 27.9015 2.04207 29.0273C2.64248 29.8702 3.42762 30.5687 4.334 31.0652C4.85936 31.3539 5.42512 31.579 6.02553 31.7176C6.53933 31.8446 7.08201 31.9081 7.63623 31.9081H16.6365C17.9759 31.9081 19.0613 32.9934 19.0613 34.3328V43.3042C19.0613 43.8238 19.119 44.3376 19.2344 44.8226C19.3788 45.4634 19.6097 46.0696 19.9215 46.6238C20.2332 47.1838 20.62 47.7034 21.0703 48.1537C21.3474 48.4308 21.6476 48.6848 21.9709 48.9099C23.0909 49.6951 24.4534 50.1627 25.9255 50.1627C29.7127 50.1627 32.784 47.0914 32.784 43.3042V33.9518C32.784 32.8607 32.6743 31.7926 32.4607 30.7592ZM25.9255 46.0003C25.2847 46.0003 24.7016 45.7405 24.2859 45.3191C24.1012 45.1343 23.9453 44.9149 23.8299 44.6782C23.6855 44.378 23.6047 44.0374 23.6047 43.6795V33.5361L23.1948 31.9139C22.5598 29.9452 21.0183 28.3807 19.0613 27.7168C18.3973 27.4916 17.693 27.3704 16.9541 27.3704H12.2086H7.56695C7.12819 27.3704 6.72407 27.2492 6.37769 27.0413C5.70223 26.6372 5.25193 25.8983 5.25193 25.0496C5.25193 24.4088 5.51172 23.8257 5.93315 23.41C6.35459 22.9886 6.93191 22.7288 7.57273 22.7288H15.2856H16.8906C17.6353 22.7288 18.3627 22.8212 19.0613 22.9597C20.7355 23.283 22.2827 23.9758 23.6047 24.9515C24.5342 25.6385 25.3597 26.4583 26.041 27.3935C26.7511 28.3576 27.3053 29.4372 27.6863 30.5976C27.9692 31.4982 28.0327 32.7856 28.0327 32.7856L28.2405 43.6795C28.2405 44.9611 27.2071 46.0003 25.9255 46.0003Z" fill="#244967"/>
<path d="M34.793 18.1911H44.1513C44.5438 18.1911 44.9306 18.2258 45.3001 18.2893C48.5388 18.8377 51.004 21.655 51.004 25.0496C51.004 26.9432 50.2361 28.6578 48.9949 29.899C47.7537 31.1403 46.0391 31.9081 44.1455 31.9081H35.1971H34.8392C34.845 31.8042 34.845 31.7002 34.845 31.5963C34.845 30.0087 34.4409 28.5481 33.7596 27.3646H34.3023H44.1744C45.4618 27.3646 46.5125 26.3197 46.5125 25.0265C46.5125 23.7391 45.4675 22.6884 44.1744 22.6884L38.9381 22.7346H35.0009C34.7295 22.7346 34.464 22.7173 34.1984 22.6884C33.419 22.596 32.6801 22.3709 32.0046 22.0418C30.6768 21.3837 29.5972 20.3041 28.9391 18.982C28.4888 18.0757 28.2347 17.0538 28.2347 15.9742V15.2642V13.4398V6.82961C28.2347 5.5422 27.1898 4.49149 25.8966 4.49149C24.6092 4.49149 23.5585 5.53643 23.5585 6.82961V16.8056V17.3829C22.3346 16.6035 20.7701 16.1417 19.067 16.1417V15.8646V6.85848C19.067 3.0713 22.1383 0 25.9255 0C27.8191 0 29.5337 0.767826 30.7749 2.00905C32.0161 3.25027 32.784 4.96489 32.784 6.85848V7.04322V15.8934V16.1879C32.784 17.2905 33.6846 18.1911 34.793 18.1911Z" fill="#8AB99D"/>
</svg>
